<svg width="86" height="80" viewBox="0 0 86 80" fill="none" xmlns="http://www.w3.org/2000/svg">
<g clip-path="url(#clip0_612_1186)">
<path d="M86 23.2289V27.0821C85.95 27.2715 85.875 27.4509 85.855 27.6454C85.605 30.1028 84.965 32.4606 84.065 34.7536C81.925 40.2019 78.615 44.9175 74.76 49.2641C66.02 59.109 55.61 66.9151 44.43 73.7741C43.425 74.3922 42.405 74.3473 41.435 73.6893C36.765 70.524 31.99 67.5083 27.46 64.1535C20.295 58.8548 13.725 52.8781 8.255 45.7948C5.13 41.7472 2.52 37.4104 1.085 32.4656C0.605 30.8156 0.355 29.1059 0 27.421C0 26.0801 0 24.7393 0 23.4033C0.05 23.1591 0.125 22.9198 0.15 22.6756C0.68 17.5263 2.47 12.8706 5.72 8.82798C9.77 3.77845 14.975 0.667974 21.49 0.154547C29.315 -0.458576 35.67 2.55719 40.71 8.45911C41.535 9.42117 42.235 10.4929 43.02 11.5496C43.575 10.7621 44.07 9.99441 44.63 9.27163C45.215 8.52392 45.81 7.7762 46.485 7.11323C53.15 0.548341 60.995 -1.72968 69.925 1.36085C77.845 4.10246 82.62 10.0143 84.965 17.9201C85.475 19.6399 85.665 21.4593 86 23.2289Z" fill="#EF4623"/>
</g>
<defs>
<clipPath id="clip0_612_1186">
<rect width="86" height="80" fill="white"/>
</clipPath>
</defs>
</svg>
