<svg width="129" height="85" viewBox="0 0 129 85" fill="none" xmlns="http://www.w3.org/2000/svg">
<g clip-path="url(#clip0_612_1188)">
<path d="M62.7076 60.097C61.6493 60.3007 60.7189 60.4111 59.8398 60.6658C47.9845 64.1045 44.2888 73.8688 45.6544 84.8982H83.4395C83.4395 82.4104 83.559 79.9991 83.4139 77.5962C82.9188 69.2414 76.6455 62.1602 68.3835 60.496C67.7263 60.3602 67.0691 60.2498 66.1558 60.08C74.0081 58.1356 76.3468 51.878 75.5359 46.9959C74.6739 41.7996 70.0478 37.8854 64.6622 37.7665C59.3277 37.6476 54.531 41.5194 53.4811 46.7836C52.2948 52.7186 55.3589 57.1931 62.7076 60.097ZM86.9901 22.3135C94.3132 19.5371 97.4968 15.088 96.3958 9.2379C95.3716 3.79538 90.7967 -0.0169248 85.3087 5.65029e-05C79.9827 0.0170378 75.3055 3.82934 74.3495 8.94921C73.1888 15.1304 76.27 19.5201 83.7211 22.3135C77.3027 23.222 71.4988 26.7371 69.5955 30.8636C80.8619 34.0985 86.8621 46.9704 81.024 57.9318C83.1749 60.3262 85.2745 62.6696 87.3486 64.9706C88.1338 63.9602 88.919 62.8225 89.8323 61.7951C90.7455 60.7592 91.7185 59.7658 92.7769 58.8913C93.4597 58.3309 93.5365 57.9318 93.1524 57.1337C88.7825 48.193 92.0514 37.6646 100.698 32.7146C101.09 32.4938 101.474 32.2646 101.969 31.9844C98.5381 26.2617 93.5621 23.1201 86.9901 22.322V22.3135ZM26.9966 32.0183C29.7705 33.3768 32.0324 35.1004 33.765 37.4099C38.3484 43.5487 39.0312 50.1289 35.8902 57.1167C35.7195 57.4988 35.583 58.1781 35.7878 58.3988C37.8021 60.6064 39.8847 62.7375 41.8222 64.7668C43.7426 62.6272 45.8251 60.3092 48.0101 57.8809C45.3386 52.812 44.8777 47.3525 47.1737 41.8081C49.4867 36.2297 53.7543 32.6976 59.5838 30.8466C56.0502 25.7607 51.3047 22.9928 45.0996 22.288C51.8168 20.2927 55.3674 15.8436 54.8297 10.3247C54.2834 4.7803 50.1268 0.501005 44.8436 0.0510005C39.2445 -0.424477 34.2942 2.86141 32.8603 8.10015C31.9811 11.3266 32.4335 14.4002 34.2771 17.2191C36.0951 19.9871 38.758 21.5324 42.3172 22.2626C35.4123 23.1031 30.479 26.2532 26.9966 32.0014V32.0183Z" fill="white"/>
<path d="M0 76.8065C0.213378 75.9235 0.401151 75.032 0.6316 74.1575C2.6715 66.6177 8.89361 61.2432 16.7118 60.2328C16.8227 60.2158 16.9337 60.1648 17.3946 60.029C13.9635 59.2648 11.3688 57.711 9.61909 54.9855C7.85232 52.2431 7.34875 49.2713 8.17666 46.1128C9.474 41.1628 14.0488 37.6986 19.1187 37.7665C24.291 37.8429 28.8487 41.4854 29.9327 46.4439C30.6155 49.577 30.0693 52.4978 28.2769 55.1723C26.5187 57.7875 23.9923 59.2818 20.6123 60.029C32.5786 61.8545 39.5433 70.6678 37.9216 84.9746H36.5901C26.0151 84.9746 15.4315 84.9406 4.85649 85C2.54347 85.0085 0.870584 84.2783 0 82.0792C0 80.3217 0 78.5726 0 76.815L0 76.8065Z" fill="#EF4623"/>
<path d="M129 82.0707C128.121 84.2698 126.457 85.0085 124.144 84.9915C113.568 84.932 102.985 84.966 92.4099 84.966H90.976C91.0016 80.5339 90.5066 76.2036 92.2648 72.1027C95.1582 65.3356 100.254 61.345 107.585 60.2412C107.73 60.2157 107.867 60.1818 108.046 60.0544C104.325 59.1204 101.483 57.1082 99.8269 53.644C98.6832 51.2581 98.4528 48.7533 99.1014 46.1977C100.39 41.1287 105.23 37.5202 110.368 37.7834C115.967 38.0721 120.269 42.0033 121.105 47.5901C121.933 53.1345 118.562 57.711 111.725 60.0799C112.467 60.2157 112.997 60.3176 113.526 60.4195C121.66 62.0667 127.464 68.0951 128.787 76.2461C128.821 76.4414 128.932 76.6282 129 76.815V82.0792V82.0707Z" fill="#EF4623"/>
<path d="M62.7076 60.0969C55.3589 57.1931 52.2948 52.7185 53.4811 46.7835C54.531 41.5193 59.3277 37.6476 64.6622 37.7665C70.0478 37.8853 74.6739 41.7995 75.5359 46.9958C76.3468 51.8694 74.0081 58.1356 66.1558 60.0799C67.0691 60.2497 67.7263 60.3601 68.3835 60.496C76.6455 62.1601 82.9188 69.2413 83.4139 77.5961C83.559 79.999 83.4395 82.4104 83.4395 84.8981H45.6544C44.2888 73.8772 47.9845 64.1045 59.8398 60.6658C60.7189 60.411 61.6407 60.3007 62.7076 60.0969Z" fill="#EF4623"/>
<path d="M86.9901 22.3135C93.5536 23.1116 98.5381 26.2532 101.969 31.9759C101.474 32.2646 101.09 32.4853 100.698 32.7061C92.0514 37.6476 88.7825 48.1846 93.1524 57.1252C93.5451 57.9233 93.4597 58.3139 92.7769 58.8828C91.7185 59.7573 90.7455 60.7592 89.8323 61.7866C88.919 62.814 88.1338 63.9517 87.3485 64.9621C85.2745 62.6611 83.1749 60.3177 81.024 57.9233C86.862 46.9619 80.8533 34.0985 69.5955 30.8551C71.4988 26.7287 77.3027 23.222 83.7211 22.305C76.2699 19.5031 73.1888 15.1134 74.3495 8.94072C75.314 3.82934 79.9827 0.0170378 85.3087 5.65029e-05C90.7967 -0.0169248 95.3716 3.79538 96.3958 9.2379C97.4968 15.088 94.3132 19.5286 86.9901 22.3135Z" fill="#EF4623"/>
<path d="M26.9966 32.0182C30.479 26.2701 35.4208 23.12 42.3172 22.2795C38.758 21.5493 36.0865 20.004 34.2771 17.236C32.4335 14.4171 31.9811 11.3435 32.8603 8.11703C34.2942 2.87829 39.236 -0.407592 44.8351 0.0678853C50.1183 0.51789 54.2749 4.78869 54.8212 10.3416C55.3674 15.8605 51.8083 20.3096 45.0911 22.3049C51.2876 23.0096 56.0417 25.7776 59.5752 30.8635C53.7457 32.7145 49.4782 36.2466 47.1651 41.825C44.8692 47.3694 45.3301 52.8288 48.0016 57.8978C45.8166 60.3261 43.734 62.6441 41.8136 64.7837C39.8761 62.7629 37.7936 60.6233 35.7793 58.4157C35.5744 58.1949 35.711 57.5157 35.8817 57.1336C39.0226 50.1458 38.3398 43.5655 33.7564 37.4268C32.0324 35.1173 29.762 33.3937 26.9881 32.0352L26.9966 32.0182Z" fill="#EF4623"/>
</g>
<defs>
<clipPath id="clip0_612_1188">
<rect width="129" height="85" fill="white"/>
</clipPath>
</defs>
</svg>
