<svg width="102" height="108" viewBox="0 0 102 108" fill="none" xmlns="http://www.w3.org/2000/svg">
<g clip-path="url(#clip0_612_1195)">
<path d="M66.9052 79.4402C68.5937 73.508 69.6113 71.7928 73.3698 68.0669C80.6247 60.88 83.8435 52.1889 82.8567 42.0435C80.9909 22.854 62.3449 9.64656 43.5794 14.1667C27.4351 18.0537 16.8921 33.3677 19.2204 49.6257C20.2882 57.0774 23.6188 63.3933 29.112 68.5734C31.7796 71.0868 33.6299 74.0912 34.5821 77.6329C34.744 78.2315 34.8866 78.8339 35.0408 79.4402H66.9014H66.9052ZM43.7721 101.857C43.7721 102.705 43.7644 103.372 43.7721 104.036C43.8107 106.431 45.3488 107.962 47.758 107.981C49.9515 108 52.1449 108.008 54.3383 107.981C56.605 107.954 58.1469 106.408 58.2048 104.159C58.224 103.426 58.2048 102.689 58.2048 101.857C60.5986 101.922 62.819 102.018 64.6154 100.399C66.381 98.8024 66.9515 96.8224 66.6932 94.5201H35.2837C35.0909 96.4464 35.4302 98.1386 36.6175 99.6274C38.4331 101.907 40.9812 101.987 43.776 101.857H43.7721ZM66.6778 83.1162H35.2914V90.7981H66.6778V83.1162ZM10.3234 47.5805V42.9299H0V47.5805H10.3234ZM91.5995 47.5152H102V42.9529H91.5995V47.5152ZM32.7819 9.07099C30.9855 5.98209 29.2624 3.01599 27.5084 0C26.0744 0.832658 24.756 1.59625 23.3798 2.39437C25.1646 5.46408 26.88 8.42251 28.6379 11.45C30.0719 10.625 31.3671 9.88062 32.778 9.06715L32.7819 9.07099ZM73.3429 11.45C75.1238 8.38414 76.8431 5.41803 78.6048 2.37902C77.19 1.56939 75.8678 0.809635 74.4646 0C72.6875 3.06203 70.9683 6.02814 69.2066 9.06715C70.5789 9.8576 71.878 10.6058 73.3429 11.45Z" fill="white"/>
<path d="M66.9052 79.4402H35.0447C34.8905 78.834 34.7478 78.2316 34.5859 77.633C33.6338 74.0913 31.7834 71.0906 29.1159 68.5735C23.6227 63.3934 20.2921 57.0736 19.2243 49.6257C16.8959 33.3678 27.439 18.0538 43.5832 14.1667C62.3449 9.65043 80.9909 22.854 82.8605 42.0435C83.8474 52.1889 80.6286 60.88 73.3737 68.067C69.6152 71.7928 68.5936 73.508 66.9091 79.4402H66.9052ZM50.9345 24.8915C39.4932 24.7189 30.2106 34.6379 30.5807 45.1631H34.027C34.2043 40.547 35.7732 36.5756 39.0267 33.3409C42.2995 30.0832 46.3125 28.4984 50.9345 28.3603V24.8877V24.8915Z" fill="#EF4623"/>
<path d="M43.7721 101.857C40.9774 101.987 38.4293 101.907 36.6136 99.6274C35.4302 98.1386 35.0871 96.4502 35.2798 94.5201H66.6894C66.9476 96.8224 66.3771 98.8024 64.6116 100.399C62.8191 102.018 60.5987 101.922 58.2009 101.857C58.2009 102.693 58.2163 103.426 58.2009 104.159C58.147 106.408 56.6012 107.954 54.3345 107.981C52.1411 108.008 49.9476 108 47.7542 107.981C45.3449 107.962 43.8068 106.427 43.7683 104.036C43.7567 103.369 43.7683 102.705 43.7683 101.857H43.7721Z" fill="#EF4623"/>
<path d="M66.6778 83.1162V90.7982H35.2914V83.1162H66.6778Z" fill="#EF4623"/>
<path d="M10.3234 47.5804H0V42.9298H10.3234V47.5804Z" fill="#EF4623"/>
<path d="M91.5995 47.5152V42.9529H102V47.5152H91.5995Z" fill="#EF4623"/>
<path d="M32.7819 9.07093C31.371 9.88057 30.0719 10.6288 28.6417 11.4538C26.8839 8.4263 25.1646 5.46786 23.3837 2.39816C24.7599 1.60003 26.0782 0.832605 27.5122 0.00378418C29.2662 3.01977 30.9893 5.98588 32.7857 9.07477L32.7819 9.07093Z" fill="#EF4623"/>
<path d="M73.3428 11.45C71.8741 10.6058 70.575 9.8576 69.2065 9.06715C70.9682 6.02814 72.6875 3.06203 74.4646 0C75.8678 0.805798 77.1938 1.56555 78.6047 2.37902C76.8431 5.41803 75.1199 8.38414 73.3428 11.45Z" fill="#EF4623"/>
<path d="M50.9345 24.8915V28.3641C46.3163 28.5022 42.2996 30.087 39.0268 33.3447C35.7771 36.5794 34.2043 40.5508 34.027 45.1669H30.5807C30.2068 34.6416 39.4932 24.7226 50.9345 24.8953V24.8915Z" fill="white"/>
</g>
<defs>
<clipPath id="clip0_612_1195">
<rect width="102" height="108" fill="white"/>
</clipPath>
</defs>
</svg>
