<svg width="94" height="87" viewBox="0 0 94 87" fill="none" xmlns="http://www.w3.org/2000/svg">
<g clip-path="url(#clip0_612_1209)">
<path d="M40.9313 55.4864C46.4423 56.5199 49.6938 59.7546 50.7666 65.2094C55.6747 65.9798 58.7316 68.9082 60.3882 73.7553C61.0718 73.229 61.7363 72.851 62.2252 72.3151C64.105 70.2623 63.9483 67.3483 61.855 65.2285C55.3045 58.6062 48.7397 51.9981 42.1797 45.3853C41.9139 45.1174 41.6243 44.859 41.3965 44.5576C40.7841 43.7489 40.8553 42.6388 41.5341 41.9402C42.2129 41.2416 43.3047 41.1554 44.1211 41.7584C44.3917 41.9593 44.629 42.2129 44.8711 42.457C48.5119 46.127 52.1526 49.7971 55.7934 53.4719C58.8171 56.5199 61.8313 59.5871 64.8787 62.616C66.2885 64.0227 68.0068 64.4582 69.9007 63.8409C71.695 63.2524 72.8295 61.9748 73.2235 60.1086C73.6269 58.1851 72.9387 56.6156 71.5858 55.2519C65.0401 48.6774 58.5133 42.0837 51.9865 35.4949C51.6922 35.1982 51.3836 34.9063 51.1416 34.5666C50.5909 33.7818 50.6811 32.7004 51.3552 32.0545C52.1147 31.3224 52.9691 31.2697 53.8425 31.82C54.1558 32.0162 54.4121 32.3176 54.6779 32.5856C58.9642 36.9016 63.2458 41.2224 67.5321 45.5385C69.8865 47.9118 72.2314 50.3043 74.6048 52.6585C76.176 54.2136 78.4497 54.582 80.3768 53.6585C82.2423 52.7637 83.2819 50.8785 83.1157 48.687C83.0113 47.3185 82.323 46.261 81.3831 45.3136C74.7377 38.6242 68.097 31.9348 61.4658 25.2311C60.5354 24.2885 59.6715 23.2789 58.7886 22.3075C58.2759 22.6042 57.9816 22.7717 57.6921 22.9439C54.4311 24.877 51.2033 26.8628 47.9043 28.7289C43.6227 31.1549 39.2889 31.1358 35.088 28.5327C31.5517 26.3412 31.172 22.4032 34.1007 19.4366C37.4139 16.0823 40.7319 12.7376 44.0499 9.38337C44.311 9.1202 44.5578 8.84267 44.9043 8.46944C37.4139 1.22503 28.7416 -1.63638 18.6358 0.918788C8.83848 3.39739 1.55695 11.7376 0.251596 21.9487C-0.958827 31.4372 2.24523 39.3611 8.87171 45.7442C11.6106 43.0981 14.2593 40.586 16.8463 38.0213C18.4079 36.471 20.2259 35.9351 22.3477 36.3179C26.7053 37.1074 30.2558 40.7631 31.115 45.2849C31.1672 45.5528 31.5137 45.9165 31.7748 45.9691C36.7779 46.9692 40.1813 50.4765 40.9313 55.4912V55.4864ZM86.8039 45.6677C86.8989 45.5145 87.065 45.1605 87.3071 44.8781C92.6092 38.7869 94.9067 31.686 93.6772 23.7047C92.1298 13.6468 86.4954 6.51718 77.0114 3.04809C67.4941 -0.435354 58.5702 1.31594 51.0039 8.14407C46.0198 12.6419 41.4677 17.6231 36.7399 22.408C35.7811 23.3794 35.895 24.3028 37.0295 25.078C38.7193 26.236 40.5943 26.681 42.6354 26.4561C44.8331 26.212 46.5562 24.9249 48.379 23.8531C52.5893 21.3697 56.7902 18.8719 60.9911 16.379C62.4673 15.5033 63.5876 15.6421 64.2426 16.7761C64.8739 17.8719 64.4705 18.8911 63.0559 19.7667C62.7806 19.9342 62.5195 20.1256 61.9974 20.4845C62.5053 20.8768 62.9325 21.14 63.279 21.4845C69.7916 28.0303 76.3089 34.5714 82.7929 41.1459C84.1363 42.5096 85.3419 44.0121 86.8039 45.6677ZM25.4759 67.7598C26.017 67.4727 26.6673 67.3004 27.0803 66.8889C30.1704 63.7978 33.1988 60.6493 36.2747 57.5439C36.9772 56.8357 37.1529 56.0367 36.8871 55.1371C36.1133 52.5341 34.4093 50.8115 31.8413 50.0124C30.9916 49.7492 30.1467 49.7827 29.4299 50.5244C26.3398 53.7207 23.2117 56.8788 20.1452 60.1039C19.775 60.4914 19.5282 61.1853 19.5377 61.726C19.5994 64.3433 22.7844 67.4775 25.4759 67.7646V67.7598ZM56.5149 75.7028C56.5576 73.0424 53.9706 70.0374 51.4264 69.3723C50.2824 69.0709 49.4137 69.3436 48.5831 70.2192C45.7065 73.2433 42.7873 76.2339 39.8395 79.191C39.0706 79.9614 38.8285 80.7988 39.1418 81.7749C39.9867 84.4401 41.762 86.1723 44.4534 86.9092C45.3315 87.1484 46.0673 86.9044 46.7128 86.2345C49.746 83.0956 52.8124 79.9853 55.8361 76.8368C56.2016 76.454 56.401 75.9086 56.5196 75.7028H56.5149ZM27.2274 46.5672C27.1942 43.7489 24.3888 40.7009 21.8161 40.2511C20.8335 40.0788 20.0883 40.3516 19.3858 41.0837C16.4665 44.1221 13.5235 47.1414 10.5521 50.1272C9.7546 50.9311 9.541 51.7876 9.88276 52.8212C10.7324 55.3955 12.465 57.0702 15.0425 57.8214C15.8827 58.0655 16.6611 57.9411 17.3304 57.252C20.4206 54.0605 23.5392 50.8976 26.6151 47.6965C26.9758 47.3185 27.1325 46.7443 27.2274 46.5624V46.5672ZM35.6482 77.2771C35.8713 77.1526 36.4693 76.9612 36.8633 76.5641C39.944 73.4634 42.9771 70.3149 46.0483 67.2095C46.7128 66.5348 46.917 65.774 46.6654 64.9127C45.8727 62.171 44.0974 60.391 41.3585 59.6349C40.4946 59.3957 39.7446 59.6158 39.0896 60.2953C36.0564 63.439 32.9757 66.5444 29.971 69.7168C29.5771 70.1331 29.2875 70.8509 29.3017 71.4251C29.3682 74.0807 32.6624 77.2531 35.6482 77.2866V77.2771Z" fill="white"/>
<path d="M40.9313 55.4864C40.1813 50.4718 36.7779 46.9692 31.7748 45.9644C31.5137 45.9117 31.1672 45.5481 31.115 45.2801C30.2558 40.7584 26.7053 37.1074 22.3477 36.3131C20.2259 35.9303 18.4127 36.4662 16.8463 38.0166C14.2545 40.5861 11.6106 43.0934 8.8717 45.7395C2.24523 39.3659 -0.958827 31.4373 0.251596 21.9487C1.55695 11.7376 8.83848 3.39745 18.6358 0.918842C28.7416 -1.63632 37.4139 1.22508 44.9091 8.47428C44.5578 8.84751 44.311 9.12504 44.0547 9.38821C40.7414 12.7377 37.4187 16.0871 34.1055 19.4414C31.1767 22.4128 31.5517 26.3461 35.0928 28.5376C39.2889 31.1406 43.6227 31.1597 47.909 28.7338C51.208 26.8676 54.4358 24.8819 57.6968 22.9488C57.9864 22.7765 58.2807 22.609 58.7933 22.3124C59.6762 23.2837 60.5401 24.2933 61.4705 25.236C68.1017 31.9397 74.7424 38.6338 81.3879 45.3184C82.3277 46.2658 83.0113 47.3233 83.1205 48.6918C83.2913 50.8833 82.247 52.7686 80.3816 53.6634C78.4544 54.5869 76.1807 54.2232 74.6095 52.6633C72.2314 50.3091 69.8912 47.9214 67.5368 45.5433C63.2553 41.2225 58.969 36.9065 54.6826 32.5904C54.4168 32.3225 54.1605 32.021 53.8472 31.8248C52.9738 31.2746 52.1146 31.332 51.3599 32.0593C50.6859 32.7053 50.5957 33.7867 51.1463 34.5714C51.3836 34.9111 51.6969 35.203 51.9912 35.4997C58.5228 42.0886 65.0496 48.6774 71.5906 55.2568C72.9482 56.6205 73.6364 58.1899 73.2282 60.1135C72.839 61.9796 71.6998 63.2572 69.9055 63.8457C68.0115 64.463 66.298 64.0276 64.8834 62.6208C61.836 59.5919 58.8266 56.5296 55.7981 53.4768C52.1574 49.8067 48.5166 46.1319 44.8758 42.4618C44.6338 42.2178 44.3964 41.9689 44.1259 41.7632C43.3094 41.1555 42.2224 41.2416 41.5389 41.945C40.8601 42.6436 40.7889 43.7489 41.4012 44.5624C41.6291 44.8638 41.9186 45.1222 42.1844 45.3902C48.7444 52.003 55.3092 58.611 61.8597 65.2334C63.9531 67.3531 64.1097 70.2624 62.23 72.3199C61.7411 72.8558 61.0765 73.2338 60.393 73.7602C58.7364 68.9082 55.6747 65.9846 50.7713 65.2142C49.6985 59.7594 46.447 56.5248 40.936 55.4912L40.9313 55.4864Z" fill="#EF4623"/>
<path d="M86.8039 45.6676C85.3419 44.0072 84.1363 42.5095 82.7929 41.1458C76.3089 34.5713 69.7916 28.0255 63.279 21.4845C62.9325 21.1399 62.5053 20.8768 61.9974 20.4844C62.5195 20.1303 62.7806 19.9389 63.0559 19.7667C64.4657 18.891 64.8739 17.8718 64.2426 16.7761C63.5876 15.642 62.4673 15.5033 60.9911 16.3789C56.7855 18.8719 52.5846 21.3696 48.379 23.853C46.5609 24.9248 44.8331 26.212 42.6354 26.456C40.5943 26.6857 38.7241 26.2359 37.0295 25.078C35.895 24.3028 35.7811 23.3793 36.7399 22.408C41.4677 17.623 46.0198 12.6419 51.0039 8.14402C58.575 1.30632 67.4941 -0.44497 77.0114 3.03847C86.4907 6.50756 92.1251 13.6371 93.6772 23.6951C94.9067 31.6812 92.6092 38.7821 87.3071 44.8685C87.0603 45.1508 86.8989 45.5097 86.8039 45.658V45.6676Z" fill="#EF4623"/>
<path d="M25.4758 67.7597C22.7844 67.4726 19.5946 64.3336 19.5376 61.7211C19.5234 61.1756 19.775 60.4865 20.1452 60.099C23.2116 56.8787 26.3397 53.7206 29.4299 50.5195C30.1466 49.7778 30.9915 49.7443 31.8412 50.0075C34.4092 50.8066 36.1133 52.5292 36.887 55.1322C37.1528 56.0317 36.9772 56.8308 36.2747 57.539C33.1988 60.6444 30.1704 63.7929 27.0802 66.884C26.6672 67.3003 26.0169 67.4726 25.4758 67.7549V67.7597Z" fill="#EF4623"/>
<path d="M56.5149 75.7027C56.3962 75.9037 56.2016 76.4539 55.8314 76.8367C52.8077 79.9852 49.7413 83.0955 46.7081 86.2344C46.0625 86.9043 45.322 87.1483 44.4486 86.9091C41.7572 86.1722 39.9867 84.44 39.137 81.7748C38.8237 80.7939 39.0706 79.9613 39.8348 79.1909C42.7825 76.2338 45.7018 73.2432 48.5783 70.2191C49.4137 69.3435 50.2824 69.0708 51.4216 69.3722C53.9659 70.0373 56.5529 73.0423 56.5101 75.7027H56.5149Z" fill="#EF4623"/>
<path d="M27.2274 46.5672C27.1325 46.749 26.9758 47.3232 26.6151 47.7012C23.5392 50.9071 20.4205 54.0652 17.3304 57.2568C16.6611 57.9458 15.8826 58.0702 15.0425 57.8262C12.465 57.0749 10.7324 55.4002 9.88275 52.8259C9.54098 51.7924 9.75459 50.9359 10.552 50.132C13.5235 47.1462 16.4665 44.1317 19.3858 41.0884C20.0883 40.3563 20.8335 40.0836 21.8161 40.2558C24.3888 40.7056 27.1942 43.7536 27.2274 46.572V46.5672Z" fill="#EF4623"/>
<path d="M35.6481 77.277C32.6624 77.2435 29.3682 74.0711 29.3017 71.4154C29.2875 70.846 29.577 70.1235 29.971 69.7072C32.9804 66.5348 36.0563 63.4294 39.0895 60.2856C39.7446 59.6062 40.4898 59.3861 41.3585 59.6253C44.0973 60.3813 45.8726 62.1613 46.6653 64.9031C46.9169 65.7644 46.7128 66.5252 46.0483 67.1999C42.9771 70.3101 39.9439 73.4586 36.8633 76.5545C36.4693 76.9516 35.8665 77.143 35.6481 77.2674V77.277Z" fill="#EF4623"/>
</g>
<defs>
<clipPath id="clip0_612_1209">
<rect width="94" height="87" fill="white"/>
</clipPath>
</defs>
</svg>
