<?xml version="1.0" encoding="UTF-8"?>
<svg id="Layer_1" data-name="Layer 1" xmlns="http://www.w3.org/2000/svg" viewBox="0 0 720 720">
  <defs>
    <style>
      .cls-1 {
        fill: #ed4724;
      }

      .cls-1, .cls-2 {
        stroke-width: 0px;
      }

      .cls-2 {
        fill: #fff;
      }
    </style>
  </defs>
  <rect class="cls-1" x="-7.51" width="735.32" height="720" rx="72" ry="72"/>
  <g>
    <path class="cls-2" d="M322.2,253.61c22.34-3.03,251.15-30.39,266.39-34.71C456.56-7.66,95.38,90.94,90.95,350.8l348.5,33.94-332.93,63.8c7.37,18.06,23.24,67.03,44.87,66.36,138.6.56,277.2.82,415.79.86,14.97,1.37,18.49-11.86,24.94-22.08l-333.18-48.77,368.58-54.5c4.19-38.39,1.42-76.39-11.48-112.84l-293.84-23.97Z"/>
    <path class="cls-2" d="M569.75,525.32c-127.73,13.58-251.98,26.79-378.51,40.24,103.5,95.17,289.19,79.95,378.51-40.24Z"/>
  </g>
</svg>