<svg width="102" height="102" viewBox="0 0 102 102" fill="none" xmlns="http://www.w3.org/2000/svg">
<g clip-path="url(#clip0_410_134)">
<path d="M53.7821 3.16267C53.3614 2.79617 52.8457 2.2668 52.2553 1.83922C46.8948 -2.06323 39.1457 0.52257 36.8997 6.99725C35.2033 11.8906 36.6147 16.1392 39.8717 19.8923C43.5224 24.1002 47.9872 27.4258 52.1875 31.0296C53.3139 31.9933 54.8135 31.8712 56.0281 30.8735C57.5141 29.6519 58.9594 28.3827 60.4319 27.1407C63.5193 24.5278 66.6746 21.9827 69.0902 18.6707C71.3294 15.5962 72.3133 12.2299 71.5126 8.44965C70.1895 2.21929 63.9739 -1.52028 58.2334 0.583652C56.6931 1.14696 55.3427 2.23286 53.7753 3.15588L53.7821 3.16267ZM18.1581 36.0655C18.1581 42.6487 23.5526 48.0239 30.1345 48.0104C36.6758 47.9968 42.0295 42.6487 42.0567 36.1062C42.0838 29.5229 36.7097 24.1205 30.1345 24.107C23.5526 24.0934 18.1649 29.4754 18.1649 36.0587L18.1581 36.0655ZM68.9341 36.0655C62.3522 36.0655 56.978 41.4542 56.9848 48.0375C56.9984 54.5801 62.3386 59.9349 68.8799 59.9621C75.4618 59.9892 80.8631 54.6208 80.8767 48.0375C80.8902 41.4542 75.5093 36.0655 68.9273 36.0655H68.9341ZM82.2609 59.9688C85.9522 59.9485 89.63 59.7584 93.206 60.9529C91.3399 58.021 88.8021 56.0392 85.6537 54.9466C84.5137 56.6365 83.428 58.245 82.2609 59.9688Z" fill="white"/>
<path d="M36.0786 102C36.0786 94.9959 36.0515 87.9919 36.0854 80.9946C36.1194 73.7394 40.9099 67.8213 47.9737 66.2942C49.1272 66.0431 50.3418 65.9617 51.5293 65.9617C63.2072 65.9413 74.8918 65.9413 86.5697 65.9481C94.4952 65.9481 100.419 70.9297 101.824 78.7346C101.858 78.9246 101.939 79.1078 102 79.2911V99.8078C101.267 100.541 100.541 101.267 99.8083 102H90.0507C90.0507 100.174 90.0507 98.3486 90.0507 96.523C90.0507 91.4125 90.0507 86.2952 90.0507 81.1846C90.0507 79.6644 89.3586 78.5785 88.1372 78.1102C86.0812 77.3161 84.093 78.8092 84.0862 81.1846C84.0726 88.1208 84.0862 95.0638 84.0862 102H54.0128C54.0128 100.174 54.0128 98.3486 54.0128 96.523C54.0128 91.4125 54.0128 86.2952 54.0128 81.1846C54.0128 79.6644 53.3207 78.5785 52.0993 78.1102C50.0432 77.3161 48.0551 78.8092 48.0483 81.1846C48.0347 88.1208 48.0483 95.0638 48.0483 102H36.099H36.0786Z" fill="#679749"/>
<path d="M2.21885 102C0.495331 101.199 -0.0135828 99.835 -1.1784e-05 97.9822C0.0678435 90.4487 0.0203448 82.9153 0.0271303 75.3819C0.0407014 65.283 6.24946 57.2405 16.0478 54.7633C17.7713 54.329 19.583 54.0846 21.354 54.0711C31.3763 53.9896 41.3985 54.0032 51.4207 54.01C51.726 54.01 52.1603 54.2611 52.3096 54.519C53.3274 56.2904 54.291 58.0957 55.3156 59.9621C55.1188 59.9621 54.7524 59.9621 54.386 59.9621C51.4343 59.9621 48.4961 59.9146 45.5919 60.6883C36.8657 63.0162 30.3991 70.8889 30.1616 79.9834C29.9716 87.3132 30.1074 94.6498 30.0938 101.986H17.9477C17.9477 100.161 17.9477 98.3351 17.9477 96.5094C17.9477 91.3989 17.9477 86.2816 17.9477 81.1711C17.9477 79.6508 17.2556 78.5649 16.0342 78.0966C13.9782 77.3025 11.99 78.7957 11.9832 81.1711C11.9697 88.1073 11.9832 95.0502 11.9832 101.986H2.21885V102Z" fill="#679749"/>
<path d="M11.9764 102C11.9764 95.0638 11.9697 88.1208 11.9764 81.1846C11.9764 78.8092 13.9714 77.3161 16.0274 78.1102C17.2488 78.5785 17.9409 79.6644 17.9409 81.1846C17.9477 86.2951 17.9409 91.4124 17.9409 96.523C17.9409 98.3486 17.9409 100.174 17.9409 102H11.9629H11.9764Z" fill="white"/>
<path d="M48.0279 102C48.0279 95.0638 48.0212 88.1208 48.0279 81.1846C48.0279 78.8092 50.0229 77.3161 52.0789 78.1102C53.3003 78.5785 53.9924 79.6644 53.9924 81.1846C53.9992 86.2951 53.9924 91.4124 53.9924 96.523C53.9924 98.3486 53.9924 100.174 53.9924 102H48.0144H48.0279Z" fill="white"/>
<path d="M84.0726 102C84.0726 95.0638 84.0659 88.1208 84.0726 81.1846C84.0726 78.8092 86.0676 77.3161 88.1236 78.1102C89.345 78.5785 90.0371 79.6644 90.0371 81.1846C90.0439 86.2951 90.0371 91.4124 90.0371 96.523C90.0371 98.3486 90.0371 100.174 90.0371 102H84.0591H84.0726Z" fill="white"/>
<path d="M99.8083 102C100.541 101.267 101.267 100.541 102 99.8079V102H99.8083Z" fill="white"/>
<path d="M53.7821 3.16271C55.3495 2.2397 56.6931 1.1538 58.2402 0.590488C63.9807 -1.51344 70.1963 2.22613 71.5194 8.45648C72.3201 12.2368 71.3362 15.6031 69.097 18.6775C66.6814 21.9827 63.5261 24.5278 60.4387 27.1475C58.973 28.3895 57.5209 29.6587 56.0349 30.8803C54.8203 31.878 53.3207 32.007 52.1943 31.0364C47.994 27.4258 43.5291 24.1002 39.8785 19.8992C36.6147 16.146 35.2101 11.8974 36.9065 7.00409C39.1457 0.529406 46.8948 -2.0564 52.2621 1.84606C52.8457 2.27363 53.3614 2.79622 53.7889 3.1695L53.7821 3.16271Z" fill="#679749"/>
<path d="M18.1581 36.0655C18.1581 29.4822 23.5458 24.1002 30.1277 24.1138C36.7097 24.1274 42.077 29.5297 42.0499 36.113C42.0227 42.6556 36.669 47.9968 30.1277 48.0172C23.5458 48.0308 18.1581 42.6556 18.1513 36.0723L18.1581 36.0655Z" fill="#679749"/>
<path d="M68.9341 36.0655C75.5161 36.0655 80.8902 41.4543 80.8834 48.0375C80.8699 54.6208 75.4686 59.9892 68.8866 59.9621C62.3454 59.9349 57.0052 54.5801 56.9916 48.0375C56.978 41.4543 62.359 36.0655 68.9409 36.0655H68.9341Z" fill="#679749"/>
<path d="M82.2609 59.9689C83.4212 58.245 84.5069 56.6365 85.6537 54.9466C88.8022 56.0393 91.3399 58.0143 93.206 60.953C89.63 59.7653 85.9522 59.9553 82.2609 59.9689Z" fill="#679749"/>
</g>
<defs>
<clipPath id="clip0_410_134">
<rect width="102" height="102" fill="white"/>
</clipPath>
</defs>
</svg>
