<svg width="107" height="97" viewBox="0 0 107 97" fill="none" xmlns="http://www.w3.org/2000/svg">
<path d="M31.2201 76.4311C42.9107 89.9882 63.5648 94.2352 80.3184 84.4894C97.2507 74.6429 104.392 53.8099 96.8372 35.637C89.0025 16.8158 69.8125 9.15994 54.9254 11.8982C55.1489 13.0158 55.6519 14.1558 55.5401 15.2288C55.2942 17.5199 52.8689 18.8388 50.7678 17.8776C47.8731 16.5588 45.0342 15.1058 42.2066 13.6305C40.9325 12.9711 40.4966 11.5852 41.1113 10.2776C42.4636 7.42759 43.8607 4.61112 45.3136 1.817C46.1407 0.229943 47.9848 -0.373586 49.6166 0.229943C51.2931 0.855826 52.2095 2.55465 51.8519 4.34289C51.8072 4.55524 51.7736 4.75641 51.7178 5.02465C53.5395 4.8123 55.2942 4.54406 57.0489 4.42112C70.3154 3.50465 81.9501 7.4723 91.7966 16.3799C99.8995 23.7005 104.728 32.8876 106.449 43.6729C110.227 67.4788 94.2778 90.9717 70.5948 95.7441C50.9242 99.7117 34.9195 93.2182 22.7819 77.247C22.3013 76.6099 21.8319 76.3864 21.0495 76.3752C17.6742 76.3641 14.2766 76.5094 10.9348 76.1517C5.056 75.5258 0.183057 70.2058 0.104821 64.2599C-0.0292964 54.5029 -0.0404728 44.7346 0.104821 34.9776C0.20541 28.5288 5.8607 23.0076 12.2984 22.9741C28.1019 22.8958 43.9166 22.8958 59.7201 22.9741C66.3366 23.0076 71.9136 28.6294 71.9807 35.257C72.0813 44.8352 72.0813 54.4135 71.9807 63.9917C71.9136 70.8429 66.1913 76.3529 59.2172 76.3864C50.3431 76.4423 41.4801 76.3976 32.606 76.3976C32.2036 76.3976 31.8125 76.3976 31.1978 76.3976L31.2201 76.4311ZM64.8948 38.7664C64.8948 37.6711 64.9172 36.6764 64.8948 35.6705C64.8054 32.5188 62.436 30.1047 59.2731 30.0935C43.7936 30.0711 28.3254 30.0711 12.846 30.0935C10.0631 30.0935 7.79423 31.9376 7.336 34.6646C7.11247 35.9835 7.30247 37.3694 7.30247 38.7664H64.8948ZM47.4484 61.5999C49.6725 61.5999 51.8966 61.6111 54.1319 61.5999C56.3784 61.5776 57.9319 60.1582 57.9654 58.1352C57.9989 56.0676 56.4454 54.5029 54.1766 54.4917C49.6836 54.4582 45.1907 54.4582 40.7089 54.4917C38.4848 54.5141 36.9425 56.0117 36.9313 58.0346C36.9201 60.1023 38.4848 61.5776 40.776 61.5999C43.0001 61.6223 45.2242 61.5999 47.4595 61.5999H47.4484Z" fill="#679749"/>
</svg>
