<svg width="108" height="83" viewBox="0 0 108 83" fill="none" xmlns="http://www.w3.org/2000/svg">
<g clip-path="url(#clip0_769_524)">
<path d="M108 80.6358C107.157 82.4728 105.705 82.9998 103.749 82.9998C70.5349 82.9596 37.3257 82.9697 4.1114 82.9697C1.06788 82.9697 0.00514719 81.8956 0.00514719 78.8239C0.00514719 68.6403 0.000157813 58.4617 0.00514719 48.278C0.0151259 37.6075 6.56119 28.9848 16.7744 26.1892C17.5727 25.9683 18.396 25.8278 19.339 25.617C16.4352 21.6068 15.4024 17.2703 16.4302 12.5072C17.2085 8.88349 19.0695 5.9072 21.9085 3.57334C27.6014 -1.10441 35.6143 -1.20981 41.5068 3.34748C44.8846 5.96241 46.8753 9.43559 47.499 13.6968C48.1227 17.963 46.9801 21.7875 44.5303 25.4664H57.4428C57.6324 24.8441 57.7921 24.2719 57.9767 23.7148C60.2419 16.8487 66.5834 12.4621 73.798 12.7582C80.6384 13.0393 86.6606 18.0382 88.332 24.8692C88.4867 25.5116 88.7312 25.7876 89.3848 25.9483C96.2053 27.6397 101.03 33.512 101.464 40.5487C101.489 40.9502 101.679 41.4722 101.973 41.7131C105.221 44.3782 107.202 47.751 107.831 51.9269C107.855 52.0975 107.945 52.2581 108.005 52.4187V80.6408L108 80.6358ZM88.806 76.5654C88.806 73.9454 88.806 71.4409 88.806 68.9364C88.806 64.093 88.811 59.2496 88.806 54.4063C88.806 52.9156 89.3998 51.7863 90.7718 51.1891C92.9123 50.2605 95.1226 51.8566 95.1326 54.3511C95.1525 61.3878 95.1375 68.4194 95.1375 75.4561C95.1375 75.8276 95.1375 76.199 95.1375 76.5403H101.679V75.5515C101.679 68.5851 101.689 61.6237 101.679 54.6572C101.669 48.8652 97.4975 44.594 91.7198 44.5739C79.2414 44.5338 66.768 44.5288 54.2895 44.6041C52.8277 44.6141 51.251 44.9604 49.9288 45.5828C46.2666 47.3093 44.5503 50.4262 44.5303 54.4414C44.4904 61.5484 44.5203 68.6553 44.5203 75.7573C44.5203 76.0233 44.5702 76.2943 44.5952 76.5403H50.8469C50.8469 76.0384 50.8469 75.5866 50.8469 75.1349C50.8469 68.2388 50.8519 61.3476 50.8419 54.4514C50.8419 52.9658 51.3957 51.8215 52.7578 51.1991C54.9232 50.2103 57.1634 51.8315 57.1684 54.3912C57.1834 61.3928 57.1734 68.3893 57.1734 75.3909C57.1734 75.7673 57.1734 76.1438 57.1734 76.5553H88.811L88.806 76.5654ZM38.1788 76.5603C38.1788 76.0534 38.1788 75.667 38.1788 75.2805C38.1788 68.2789 38.099 61.2773 38.2038 54.2758C38.3036 47.5 41.4818 42.5864 47.5489 39.6201C49.6993 38.5661 52.0144 38.1847 54.4043 38.1998C56.3152 38.2148 58.2262 38.1998 60.0523 38.1998C59.1093 36.0717 58.2012 34.0289 57.2383 31.8657C57.1534 31.8657 56.879 31.8356 56.6046 31.8356C45.2139 31.8356 33.8231 31.7955 22.4374 31.8456C13.2669 31.8858 6.35163 38.9426 6.34165 48.1776C6.32668 57.3023 6.34165 66.4219 6.34165 75.5465V76.5453H12.8827C12.8827 75.9681 12.8827 75.4461 12.8827 74.9241C12.8827 68.0982 12.8877 61.2723 12.8777 54.4514C12.8777 52.9658 13.4365 51.8214 14.7986 51.2041C16.964 50.2204 19.1993 51.8465 19.2043 54.4063C19.2192 61.4078 19.2092 68.4094 19.2092 75.411C19.2092 75.7874 19.2092 76.1588 19.2092 76.5553H38.1938L38.1788 76.5603ZM22.3725 15.7646C22.2228 20.9041 26.4139 25.2757 31.6727 25.4564C36.7718 25.6321 41.1276 21.4311 41.3321 16.131C41.5367 10.9764 37.2508 6.5145 31.982 6.38401C26.8679 6.25853 22.5272 10.4946 22.3725 15.7646ZM82.4695 28.6435C82.4595 23.4488 78.1687 19.1274 72.9997 19.1123C67.8457 19.0973 63.5398 23.3986 63.4999 28.6134C63.46 33.8231 67.8357 38.2299 73.0197 38.1947C78.1986 38.1596 82.4795 33.8282 82.4645 28.6435H82.4695ZM88.5965 32.3124C87.6685 34.325 86.7853 36.2423 85.9272 38.1194H94.5488C93.3863 35.1883 91.3955 33.3062 88.5965 32.3124Z" fill="#EF4623"/>
</g>
<defs>
<clipPath id="clip0_769_524">
<rect width="108" height="83" fill="white"/>
</clipPath>
</defs>
</svg>
