<svg width="97" height="97" viewBox="0 0 97 97" fill="none" xmlns="http://www.w3.org/2000/svg">
<g clip-path="url(#clip0_410_146)">
<path d="M78.8273 53.2969C80.4663 54.8479 81.8801 56.1862 83.2939 57.5246C84.9954 59.1506 86.2841 58.913 87.3538 56.7804C87.9668 55.5608 88.5361 54.3163 89.2055 53.128C89.3869 52.8028 89.8185 52.4838 90.1813 52.415C94.1349 51.6896 96.8999 48.5751 96.9562 44.5662C97.0188 40.4636 97.0188 36.3547 96.9562 32.2521C96.8936 27.6553 93.428 24.2782 88.8239 24.2469C85.8837 24.2281 82.9436 24.2469 79.9972 24.2469C79.6343 24.2469 79.2715 24.2469 78.8211 24.2469C78.8211 23.7091 78.8211 23.3025 78.8211 22.896C78.8211 17.4925 78.8211 12.0891 78.8211 6.68559C78.8211 2.46412 76.3626 2.84431e-05 72.1276 -0.00622559C56.3633 2.84431e-05 40.5991 2.84431e-05 24.8286 0.00628247C24.153 0.00628247 23.4461 0.0312986 22.7956 0.193903C19.8804 0.925625 18.1726 3.27714 18.1726 6.52298C18.1664 17.3987 18.1726 28.2745 18.1726 39.1502C18.1726 39.5443 18.1414 39.9383 18.1163 40.4136C17.6346 40.4136 17.2656 40.4136 16.8965 40.4136C13.9188 40.4136 10.9411 40.3635 7.96968 40.4386C3.39055 40.5637 0.0875717 43.9408 0.0375266 48.5313C-0.00626293 52.5651 -0.00626293 56.6052 0.0375266 60.6391C0.0875717 64.7042 2.84005 67.8625 6.81864 68.613C7.20024 68.688 7.63813 69.0445 7.83831 69.3885C8.49516 70.5455 9.05191 71.7588 9.64619 72.947C10.7472 75.1422 11.9733 75.3486 13.7812 73.635C15.1824 72.3091 16.5837 70.9833 18.1726 69.476V70.8332C18.1726 77.2998 18.2477 83.7602 18.1414 90.2269C18.0788 94.2107 20.9126 97.025 24.9162 97.0063C40.6492 96.9125 56.3821 96.9687 72.115 96.9625C72.7969 96.9625 73.4913 96.9437 74.1481 96.7874C77.0695 96.0994 78.8148 93.6916 78.8148 90.3895C78.8148 78.5194 78.8148 66.6555 78.8148 54.7853C78.8148 54.3851 78.8148 53.9848 78.8148 53.3031L78.8273 53.2969Z" fill="white"/>
<path d="M78.8275 53.2968C78.8275 53.9785 78.8275 54.3788 78.8275 54.779C78.8275 66.6492 78.8275 78.5131 78.8275 90.3832C78.8275 93.6854 77.0822 96.0932 74.1608 96.7811C73.504 96.9375 72.8033 96.9562 72.1277 96.9562C56.3948 96.9625 40.6618 96.9124 24.9289 97C20.919 97.025 18.0852 94.2044 18.154 90.2206C18.2604 83.7602 18.1853 77.2935 18.1853 70.8269V69.4698C16.5964 70.977 15.1889 72.2966 13.7939 73.6287C11.9922 75.336 10.7599 75.1359 9.65888 72.9407C9.06459 71.7525 8.50784 70.5392 7.851 69.3822C7.65082 69.032 7.21292 68.6755 6.83133 68.6067C2.83397 67.8562 0.0814884 64.6979 0.0376989 60.6328C-0.0123462 56.599 -0.00609058 52.5589 0.0376989 48.525C0.0877441 43.9346 3.39072 40.5574 7.96985 40.4323C10.9413 40.351 13.919 40.4073 16.8967 40.4073C17.2657 40.4073 17.6411 40.4073 18.1165 40.4073C18.1353 39.932 18.1728 39.538 18.1728 39.144C18.1728 28.2682 18.1728 17.3925 18.1728 6.5167C18.1728 3.27086 19.8806 0.919342 22.7957 0.187621C23.4463 0.0250161 24.1469 0 24.8288 0C40.5993 0 56.3635 0 72.134 0C76.3628 0 78.8213 2.46409 78.8275 6.69181C78.8275 12.0953 78.8275 17.4988 78.8275 22.9023C78.8275 23.3088 78.8275 23.7153 78.8275 24.2531C79.2779 24.2531 79.6408 24.2531 80.0036 24.2531C82.9437 24.2531 85.8839 24.2344 88.8303 24.2531C93.4344 24.2844 96.9001 27.6553 96.9626 32.2583C97.0189 36.3609 97.0189 40.4698 96.9626 44.5725C96.9063 48.5876 94.1413 51.7021 90.1878 52.4213C89.8249 52.4901 89.3933 52.809 89.2119 53.1342C88.5425 54.3225 87.9733 55.5671 87.3602 56.7866C86.2905 58.9192 85.0018 59.1506 83.3003 57.5308C81.8928 56.1862 80.4728 54.8541 78.8338 53.3031L78.8275 53.2968ZM74.7363 16.2292H22.2765V40.4073C22.6894 40.4073 23.0522 40.4073 23.4213 40.4073C26.2926 40.4073 29.164 40.3823 32.0353 40.4135C37.0148 40.4698 40.3803 43.8345 40.4241 48.819C40.4554 52.6464 40.4617 56.4801 40.4241 60.3076C40.3741 65.2671 36.9522 68.6317 31.979 68.6567C29.1077 68.6692 26.2363 68.6567 23.365 68.6567C23.0084 68.6567 22.6456 68.6567 22.2765 68.6567V80.752H74.7113V52.5338C74.2922 52.5338 73.9231 52.5338 73.554 52.5338C70.6827 52.5338 67.8113 52.5651 64.94 52.5276C60.1607 52.465 56.7138 49.2004 56.595 44.4849C56.4949 40.4198 56.4949 36.3484 56.595 32.277C56.7138 27.5427 60.1857 24.2719 64.9337 24.2531C67.8426 24.2406 70.7452 24.2531 73.6541 24.2531C74.0107 24.2531 74.3735 24.2531 74.7426 24.2531V16.2355L74.7363 16.2292ZM12.3863 69.3885C13.7939 68.0501 15.1013 66.8431 16.3587 65.5923C17.0343 64.9168 17.7787 64.6354 18.7421 64.6416C23.1523 64.6729 27.5625 64.6667 31.9728 64.6542C34.7127 64.6416 36.3767 62.9718 36.383 60.2326C36.3892 56.4739 36.3892 52.709 36.383 48.9503C36.383 46.0734 34.744 44.4349 31.8664 44.4349C24.1094 44.4349 16.3462 44.4349 8.58916 44.4349C5.64901 44.4349 4.04131 46.0547 4.03505 49.0253C4.0288 52.7152 4.02254 56.4113 4.03505 60.1012C4.04131 63.0031 5.59897 64.5979 8.52661 64.6479C9.57755 64.6667 10.2657 65.1044 10.7161 66.03C11.2353 67.0995 11.7733 68.1564 12.3926 69.3885H12.3863ZM84.614 53.2093C85.202 52.0398 85.7588 51.0266 86.2342 49.9759C86.7159 48.9128 87.4791 48.4562 88.6551 48.4562C91.2888 48.4562 92.9465 46.8052 92.9653 44.1597C92.9966 40.2947 92.9966 36.4297 92.9653 32.5647C92.9465 29.9193 91.3075 28.287 88.6426 28.2807C80.7418 28.262 72.8471 28.262 64.9463 28.2807C62.2376 28.287 60.6299 29.9505 60.6236 32.6585C60.6174 36.4235 60.6236 40.1821 60.6236 43.9471C60.6236 46.8302 62.2501 48.4625 65.1277 48.4625C69.3315 48.4625 73.5415 48.5062 77.7453 48.4375C79.084 48.4124 80.0974 48.7939 81.017 49.7571C82.1242 50.9203 83.3316 51.9772 84.614 53.1968V53.2093ZM74.7676 12.0765C74.7676 10.3254 74.7676 8.62431 74.7676 6.92321C74.7676 4.59671 74.1858 4.01509 71.8525 4.01509C56.2947 4.01509 40.7369 4.01509 25.1791 4.01509C24.735 4.01509 24.197 3.91502 23.8717 4.12141C23.2837 4.49665 22.4079 5.03449 22.3703 5.55983C22.2014 7.71747 22.3015 9.89387 22.3015 12.0703H74.7739L74.7676 12.0765ZM22.264 84.8797C22.264 87.0373 22.2202 89.1449 22.3015 91.2525C22.3203 91.6903 22.7019 92.2594 23.0897 92.4908C23.5839 92.791 24.2408 92.9224 24.8288 92.9286C40.6243 92.9474 56.4261 92.9474 72.2216 92.9411C72.5281 92.9411 72.8409 92.9224 73.1349 92.8661C74.0044 92.7035 74.655 92.1406 74.6926 91.3088C74.7926 89.1762 74.7238 87.0373 74.7238 84.8797H22.264Z" fill="#679749"/>
<path d="M74.7362 16.2292V24.2469C74.3671 24.2469 74.0043 24.2469 73.6477 24.2469C70.7388 24.2469 67.8362 24.2406 64.9273 24.2469C60.1793 24.2656 56.7074 27.5365 56.5886 32.2708C56.4885 36.3359 56.4885 40.4073 56.5886 44.4786C56.7074 49.1942 60.1543 52.465 64.9336 52.5213C67.8049 52.5588 70.6763 52.5276 73.5476 52.5276C73.9167 52.5276 74.2858 52.5276 74.7049 52.5276V80.7458H22.2764V68.6505C22.6454 68.6505 23.002 68.6505 23.3648 68.6505C26.2362 68.6505 29.1075 68.663 31.9789 68.6505C36.9521 68.6254 40.3739 65.267 40.424 60.3013C40.4615 56.4739 40.4553 52.6401 40.424 48.8127C40.3802 43.8282 37.0146 40.4636 32.0352 40.4073C29.1638 40.376 26.2925 40.401 23.4211 40.401C23.0521 40.401 22.6892 40.401 22.2764 40.401V16.2292H74.7362Z" fill="white"/>
<path d="M12.3862 69.3884C11.7731 68.1564 11.2289 67.0995 10.7097 66.03C10.2655 65.1044 9.57739 64.6667 8.52018 64.6479C5.59254 64.5979 4.03489 63.0031 4.02863 60.1012C4.01612 56.4113 4.02238 52.7152 4.02863 49.0253C4.03489 46.0547 5.64259 44.4349 8.58274 44.4349C16.3397 44.4349 24.103 44.4349 31.86 44.4349C34.7376 44.4349 36.3703 46.0734 36.3766 48.9503C36.3766 52.709 36.3828 56.4739 36.3766 60.2325C36.3703 62.9656 34.7063 64.6416 31.9663 64.6541C27.5561 64.6667 23.1459 64.6792 18.7356 64.6416C17.7785 64.6354 17.0279 64.9168 16.3522 65.5923C15.0949 66.8431 13.7874 68.0438 12.3799 69.3884H12.3862ZM20.2558 48.4812C17.0091 48.4812 13.7562 48.4812 10.5095 48.4812C9.01438 48.4812 8.06978 49.2943 8.08854 50.5263C8.10731 51.7146 9.03315 52.5276 10.4657 52.5276C16.9653 52.5401 23.4587 52.5401 29.9583 52.5276C31.4284 52.5276 32.2916 51.7521 32.3041 50.52C32.3167 49.238 31.4346 48.4812 29.902 48.4812C26.6866 48.475 23.4712 48.4812 20.2558 48.4812ZM20.0744 60.5953C23.4274 60.5953 26.7742 60.6078 30.1272 60.5953C31.4784 60.589 32.3292 59.7635 32.3041 58.544C32.2791 57.3244 31.4096 56.5677 29.9333 56.5677C23.4712 56.5552 17.0091 56.5552 10.5408 56.5677C9.02689 56.5677 8.08854 57.3682 8.08854 58.594C8.08854 59.826 9.02689 60.6078 10.5345 60.6078C13.7124 60.6078 16.8965 60.6078 20.0744 60.6078V60.5953Z" fill="white"/>
<path d="M84.6138 53.2093C83.3314 51.9898 82.1178 50.9328 81.0168 49.7696C80.1035 48.8065 79.0838 48.425 77.7451 48.45C73.5413 48.525 69.3313 48.4813 65.1275 48.475C62.2499 48.475 60.6234 46.8427 60.6234 43.9596C60.6234 40.1947 60.6172 36.436 60.6234 32.6711C60.6297 29.9631 62.2437 28.2995 64.9461 28.2932C72.847 28.2745 80.7416 28.2745 88.6425 28.2932C91.3011 28.2995 92.9401 29.9318 92.9651 32.5773C92.9964 36.4422 92.9964 40.3072 92.9651 44.1722C92.9464 46.8177 91.2886 48.4687 88.655 48.4687C87.4852 48.4687 86.722 48.919 86.2341 49.9885C85.7586 51.0392 85.2019 52.0523 84.6138 53.2218V53.2093ZM76.7567 36.3672C80.041 36.3672 83.3252 36.3797 86.6094 36.3672C87.9606 36.3672 88.8739 35.5604 88.9115 34.4034C88.949 33.2152 88.0169 32.3584 86.6219 32.3083C86.3467 32.2958 86.0777 32.3083 85.8024 32.3083C79.9534 32.3083 74.1044 32.3083 68.2553 32.3083C67.6736 32.3083 67.0855 32.2708 66.5163 32.3459C65.2213 32.5085 64.4456 33.6404 64.7397 34.8537C64.9711 35.8106 65.7844 36.3735 67.0105 36.3735C70.2571 36.386 73.5101 36.3735 76.7567 36.3735V36.3672ZM76.763 44.4286C78.4395 44.4286 80.116 44.4286 81.7863 44.4286C83.4941 44.4286 85.2081 44.4537 86.9159 44.4036C88.0732 44.3724 88.8739 43.5406 88.9052 42.4711C88.9365 41.3704 88.1107 40.5136 86.9159 40.4261C86.5781 40.401 86.2341 40.4073 85.89 40.4073C80.0785 40.4073 74.267 40.4073 68.4493 40.4073C67.7674 40.4073 67.073 40.376 66.4037 40.4573C64.9398 40.6324 64.1954 42.2647 64.9836 43.4843C65.4591 44.2223 66.1785 44.4286 67.0167 44.4286C70.2634 44.4161 73.5101 44.4286 76.763 44.4286Z" fill="white"/>
<path d="M74.7674 12.0765H22.2951C22.2951 9.90011 22.195 7.72371 22.3639 5.56607C22.4077 5.04073 23.2773 4.49663 23.8653 4.12764C24.1906 3.92126 24.7286 4.02132 25.1727 4.02132C40.7305 4.02132 56.2883 4.02132 71.8461 4.02132C74.1794 4.02132 74.7612 4.60295 74.7612 6.92945C74.7612 8.63054 74.7612 10.3316 74.7612 12.0828L74.7674 12.0765ZM48.4187 10.094C49.1005 10.094 49.7887 10.119 50.4705 10.094C51.6716 10.0377 52.5224 9.1934 52.5349 8.09895C52.5537 7.05453 51.7592 6.12893 50.6207 6.07264C49.1881 5.9976 47.7493 5.9976 46.3168 6.0789C45.1908 6.14769 44.4088 7.11081 44.4526 8.14898C44.5026 9.20591 45.3284 10.0252 46.4669 10.0877C47.1112 10.1253 47.7681 10.094 48.4124 10.094H48.4187Z" fill="white"/>
<path d="M22.2638 84.8797H74.7237C74.7237 87.0373 74.7862 89.1762 74.6924 91.3088C74.6548 92.1344 73.998 92.6972 73.1347 92.8661C72.8345 92.9224 72.5217 92.9411 72.2214 92.9411C56.4259 92.9411 40.6241 92.9474 24.8286 92.9286C24.2406 92.9286 23.5775 92.791 23.0896 92.4909C22.708 92.2595 22.3201 91.6903 22.3014 91.2526C22.22 89.1449 22.2638 87.0373 22.2638 84.8797ZM48.5063 90.9211C49.1881 90.9211 49.8762 90.9649 50.5581 90.9086C51.7467 90.8148 52.5787 89.9142 52.5411 88.8322C52.5036 87.7378 51.6466 86.906 50.4455 86.8685C49.1506 86.831 47.8494 86.831 46.5482 86.8685C45.3534 86.8997 44.4901 87.7503 44.4589 88.8385C44.4276 89.9204 45.2596 90.8148 46.4544 90.9023C47.1363 90.9524 47.8181 90.9148 48.5063 90.9086V90.9211Z" fill="white"/>
<path d="M20.2558 48.4812C23.4712 48.4812 26.6866 48.4812 29.902 48.4812C31.4346 48.4812 32.3167 49.2442 32.3041 50.52C32.2916 51.7521 31.4221 52.5213 29.9583 52.5276C23.4587 52.5401 16.9653 52.5401 10.4657 52.5276C9.03315 52.5276 8.10731 51.7146 8.08854 50.5263C8.06978 49.2943 9.02064 48.4875 10.5095 48.4812C13.7562 48.475 17.0091 48.4812 20.2558 48.4812Z" fill="#679749"/>
<path d="M20.0744 60.5953C16.8965 60.5953 13.7124 60.5953 10.5345 60.5953C9.02064 60.5953 8.08855 59.8135 8.08855 58.5815C8.08855 57.3557 9.03315 56.5614 10.5408 56.5552C17.0028 56.5489 23.4649 56.5427 29.9333 56.5552C31.4096 56.5552 32.2854 57.3119 32.3041 58.5315C32.3292 59.751 31.4846 60.5765 30.1272 60.5828C26.7742 60.6016 23.4274 60.5828 20.0744 60.5828V60.5953Z" fill="#679749"/>
<path d="M76.7568 36.3672C73.5101 36.3672 70.2572 36.3734 67.0105 36.3672C65.7844 36.3672 64.9711 35.8043 64.7397 34.8474C64.4457 33.6342 65.2214 32.5084 66.5163 32.3396C67.0918 32.2645 67.6798 32.302 68.2553 32.302C74.1044 32.302 79.9534 32.302 85.8024 32.302C86.0777 32.302 86.3529 32.2958 86.6219 32.302C88.0169 32.3521 88.949 33.2089 88.9115 34.3971C88.8739 35.5541 87.9606 36.3609 86.6094 36.3609C83.3252 36.3734 80.041 36.3609 76.7568 36.3609V36.3672Z" fill="#679749"/>
<path d="M76.763 44.4286C73.5163 44.4286 70.2696 44.4224 67.0167 44.4286C66.1784 44.4286 65.459 44.2222 64.9836 43.4843C64.1954 42.2585 64.9461 40.6324 66.4036 40.4573C67.0793 40.376 67.7674 40.4073 68.4492 40.4073C74.2607 40.4073 80.0722 40.4073 85.89 40.4073C86.234 40.4073 86.5718 40.401 86.9159 40.426C88.1107 40.5136 88.9365 41.3704 88.9052 42.4711C88.8739 43.5405 88.0732 44.3723 86.9159 44.4036C85.2081 44.4474 83.4941 44.4224 81.7863 44.4286C80.1098 44.4286 78.4332 44.4286 76.763 44.4286Z" fill="#679749"/>
<path d="M48.4187 10.094C47.7681 10.094 47.1175 10.1253 46.4732 10.0878C45.3346 10.019 44.5089 9.19969 44.4588 8.14902C44.4088 7.10459 45.1908 6.14147 46.323 6.07893C47.7556 5.99763 49.1944 5.99763 50.6269 6.07268C51.7654 6.12897 52.5599 7.05456 52.5411 8.09898C52.5224 9.19344 51.6716 10.0315 50.4768 10.094C49.7949 10.1253 49.1068 10.094 48.4249 10.094H48.4187Z" fill="#679749"/>
<path d="M48.5063 90.9211C47.8244 90.9211 47.1363 90.9649 46.4544 90.9148C45.2596 90.821 44.4276 89.933 44.4589 88.851C44.4901 87.7628 45.3534 86.9123 46.5482 86.881C47.8432 86.8435 49.1443 86.8435 50.4455 86.881C51.6466 86.9123 52.5036 87.7503 52.5412 88.8448C52.5787 89.9267 51.7467 90.8273 50.5581 90.9211C49.8762 90.9774 49.1944 90.9336 48.5063 90.9336V90.9211Z" fill="#679749"/>
</g>
<defs>
<clipPath id="clip0_410_146">
<rect width="97" height="97" fill="white"/>
</clipPath>
</defs>
</svg>
