<svg width="100" height="103" viewBox="0 0 100 103" fill="none" xmlns="http://www.w3.org/2000/svg">
<path d="M0.00261077 2.55039C0.783232 0.574916 2.12256 -0.0378451 3.93966 0.00178621C8.23699 0.102389 12.5369 0.0322718 16.8343 0.0353204C18.8785 0.0353204 19.7662 0.834044 20.3379 3.1662C21.1969 6.67204 22.0558 10.1748 22.933 13.7539H24.2202C48.2549 13.7539 72.2871 13.7539 96.3219 13.7569C96.8075 13.7569 97.3114 13.7295 97.7787 13.8545C99.5984 14.3361 100.4 16.2842 99.8073 18.7108C97.7813 27.0121 95.7528 35.3133 93.7216 43.6115C91.941 50.8884 90.1631 58.1623 88.3799 65.4392C87.7768 67.8964 86.9362 68.628 84.7196 68.628C68.3396 68.628 51.957 68.6402 35.577 68.5975C34.5431 68.5975 34.0393 68.9725 33.6189 70.0425C32.4415 73.0332 33.6973 75.4873 36.5012 75.4873C52.5888 75.4903 68.6764 75.4873 84.764 75.4934C85.1843 75.4934 85.6203 75.4781 86.025 75.5879C87.474 75.972 88.4478 77.5329 88.3225 79.2004C88.1893 80.9777 86.9597 82.3222 85.3566 82.3404C82.3621 82.3709 79.3649 82.3496 76.3678 82.3526C76.0101 82.3526 75.6524 82.3526 75.3078 82.3526C76.3625 82.9105 77.5087 83.3038 78.4355 84.0629C79.4015 84.8525 80.31 85.8737 80.9627 87.0169C81.5945 88.1236 82.0514 89.471 82.2498 90.7789C82.4561 92.1294 82.443 93.6079 82.2081 94.9554C81.3596 99.7996 77.4669 103.156 73.1774 102.915C68.974 102.677 65.5252 98.8728 64.9299 93.8244C64.3269 88.6845 67.0708 84.3312 72.2218 82.4045H45.7616C48.1218 83.1026 50.0773 84.5141 51.4427 86.9072C52.8081 89.3003 53.2415 91.9221 52.7637 94.7542C51.9544 99.5283 48.1897 103.022 43.9472 102.924C39.6446 102.824 36.107 99.0832 35.436 93.9189C34.7677 88.7821 37.4646 84.4562 42.7932 82.3557C40.5479 82.3557 38.5037 82.3587 36.4595 82.3557C29.366 82.3374 25.1835 74.5087 28.3817 67.1159C29.0527 65.5611 29.1911 64.2228 28.7707 62.5156C24.2698 44.3218 19.8471 26.1005 15.401 7.88842C15.3305 7.59576 15.2417 7.31224 15.1268 6.90373H13.7066C10.4509 6.90373 7.19007 6.82142 3.93705 6.93422C2.11734 6.99824 0.780621 6.36414 0 4.38867V2.55953L0.00261077 2.55039ZM93.2255 20.6863H24.6222C27.9797 34.4323 31.3136 48.0898 34.645 61.723H83.2054C86.5445 48.0502 89.8733 34.417 93.2281 20.6863H93.2255ZM47.0958 92.73C47.1427 90.8856 45.853 89.279 44.2735 89.2119C42.6966 89.1418 41.3129 90.6386 41.2424 92.483C41.1693 94.3701 42.4956 96.0224 44.1116 96.062C45.6885 96.0986 47.0514 94.5804 47.0958 92.73ZM73.6552 96.062C75.2347 96.0742 76.5766 94.5408 76.6053 92.6903C76.6314 90.8429 75.3287 89.2576 73.7465 89.2119C72.1305 89.1662 70.7468 90.7484 70.7494 92.6415C70.7494 94.492 72.0756 96.0498 73.6552 96.0651V96.062Z" fill="#679749"/>
</svg>
