<svg width="109" height="108" viewBox="0 0 109 108" fill="none" xmlns="http://www.w3.org/2000/svg">
<g clip-path="url(#clip0_769_461)">
<path d="M53.9309 4.29378C66.1691 4.29378 78.4099 4.29378 90.6481 4.29378C93.4504 4.29378 96.2527 4.27513 99.0549 4.30178C101.244 4.3231 102.788 5.32259 103.337 7.12965C103.55 7.82796 103.609 8.59556 103.609 9.33118C103.622 25.8213 103.62 42.3115 103.617 58.8017C103.617 59.2947 103.593 59.7958 103.518 60.2836C103.222 62.2372 101.775 63.6072 99.8175 63.8017C99.4308 63.8391 99.0389 63.8524 98.6496 63.8551C97.0525 63.8604 95.4581 63.8524 93.861 63.8604C93.4717 63.8604 93.0798 63.879 92.6985 63.943C91.6 64.1269 90.9041 64.9238 90.8908 65.9713C90.8774 67.0188 91.568 67.9756 92.6479 68.0209C95.0182 68.1222 97.3938 68.1115 99.7668 68.0715C103.993 67.9969 107.896 64.5214 107.899 59.2867C107.902 42.4767 107.907 25.6694 107.891 8.85943C107.891 6.83381 107.368 4.94412 106.075 3.31296C104.129 0.858224 101.527 0 98.487 0C70.8884 0.0159917 43.2871 0.0106612 15.6885 0.0106612C13.4541 0.0106612 11.2171 -0.0159917 8.98279 0.0159917C3.53293 0.0932852 0.00810977 3.64079 0.0054435 9.05933C-0.00255533 25.7254 -0.00255533 42.3941 0.0161086 59.0602C0.0161086 59.9744 0.088098 60.9179 0.325397 61.7948C1.41057 65.8247 4.6341 68.1195 9.16943 68.1302C15.6618 68.1462 22.1542 68.1355 28.6466 68.1302C29.0705 68.1302 29.4998 68.1009 29.9131 68.0156C30.8622 67.8157 31.5075 66.9974 31.5235 66.0353C31.5421 65.0304 30.8836 64.1669 29.8864 63.9723C29.4038 63.879 28.8999 63.8577 28.4066 63.8577C22.0929 63.8497 15.7765 63.8551 9.46272 63.8524C5.79393 63.8524 4.27148 62.3438 4.27148 58.711C4.27148 44.0306 4.27148 29.3475 4.27148 14.6671C4.27148 12.6468 4.24749 10.6239 4.27948 8.60356C4.31148 6.57527 5.50864 4.93612 7.33503 4.47769C8.01227 4.30711 8.74016 4.30178 9.44672 4.29911C24.2765 4.29112 39.1037 4.29112 53.9335 4.29112L53.9309 4.29378ZM37.6666 31.589C37.7919 31.4691 37.8532 31.3838 37.9359 31.3358C40.3968 29.9046 40.8554 26.9194 40.3249 24.1555C39.8423 21.6395 38.2425 20.1629 35.4162 19.9257C32.3874 19.6725 29.3291 19.7312 26.2869 19.7578C25.0471 19.7685 24.5938 20.4428 24.5938 21.8421C24.5885 29.0383 24.5885 36.232 24.5938 43.4283C24.5938 44.9315 25.0898 45.4725 26.6415 45.4885C29.4785 45.5178 32.3154 45.5445 35.1496 45.4326C37.2346 45.3499 39.045 44.4944 40.0769 42.5887C41.482 39.99 41.5433 37.1915 40.6261 34.4596C40.3222 33.5534 39.3357 32.8604 38.6158 32.1114C38.3865 31.8716 38.0132 31.7703 37.6692 31.5837L37.6666 31.589ZM61.1991 29.798H61.3111C61.3111 27.066 61.3431 24.3341 61.2818 21.6049C61.2711 21.1118 61.0205 20.4348 60.6499 20.1736C59.6873 19.4993 58.5675 19.5606 57.5063 20.043C56.5625 20.4721 56.7038 21.3596 56.7011 22.1699C56.6878 27.5245 56.7198 32.8817 56.6371 38.2336C56.6025 40.5124 55.1627 41.6985 52.795 41.6852C50.462 41.6718 49.1102 40.4351 48.9743 38.1696C48.9476 37.7112 48.9529 37.2474 48.9529 36.7864C48.9529 31.7863 48.9529 26.7862 48.9529 21.7834C48.9529 20.3362 48.257 19.7178 46.6519 19.7125C45.0442 19.7072 44.3376 20.3282 44.3349 21.7701C44.3296 25.2803 44.3136 28.7931 44.3403 32.3033C44.3563 34.6061 44.3483 36.9143 44.5136 39.2091C44.6709 41.3946 45.6521 43.2017 47.5665 44.4091C49.6968 45.7524 52.0645 45.859 54.4508 45.6271C58.3995 45.2433 60.8738 42.8792 61.1591 38.9319C61.3778 35.8988 61.2018 32.8391 61.2018 29.79L61.1991 29.798ZM73.4693 30.8241C71.7042 27.4818 70.0538 24.3554 68.4034 21.2264C67.5369 19.5846 66.8863 19.3527 65.1505 20.067C63.6014 20.704 63.3588 21.397 64.188 22.8309C66.3344 26.541 68.5021 30.2431 70.6111 33.9745C70.9257 34.5289 71.1097 35.2298 71.123 35.8668C71.1817 38.3829 71.1417 40.9016 71.1497 43.4203C71.1523 44.8782 71.8429 45.4912 73.4533 45.4965C75.0798 45.5019 75.7677 44.9048 75.773 43.4416C75.781 41.1015 75.813 38.7587 75.757 36.4185C75.733 35.3791 76.0023 34.5049 76.5249 33.6173C78.6792 29.9525 80.7749 26.2531 82.9053 22.5724C83.2519 21.9727 83.4412 21.4076 82.9399 20.8133C81.6068 19.2407 79.4978 19.4513 78.5432 21.2504C76.8848 24.3741 75.2291 27.5005 73.4693 30.8241ZM65.0919 49.3958C65.0919 50.7445 65.0706 52.0905 65.0972 53.4391C65.1265 54.937 65.9531 55.8698 67.2036 55.8752C68.3954 55.8805 69.3233 54.9663 69.3499 53.5644C69.4006 50.8351 69.4033 48.1032 69.3473 45.3739C69.3179 43.98 68.3741 43.0844 67.1716 43.1084C65.9398 43.1351 65.1345 44.0173 65.0999 45.4592C65.0679 46.7705 65.0919 48.0819 65.0919 49.3958ZM50.71 63.8924C49.3635 63.8924 48.0144 63.863 46.6679 63.9004C45.2175 63.9403 44.3296 64.7346 44.2896 65.9526C44.2496 67.1787 45.1855 68.1222 46.6493 68.1462C49.3422 68.1941 52.0405 68.1968 54.7334 68.1435C56.1625 68.1142 57.0477 67.2293 57.0557 66.0246C57.0611 64.7692 56.1465 63.9377 54.6454 63.9004C53.3336 63.8684 52.0218 63.8924 50.71 63.895V63.8924ZM59.2767 75.1852C58.7248 74.5402 58.3275 73.7993 57.709 73.4155C56.8798 72.9037 55.9786 73.2235 55.2907 73.9032C53.3469 75.8222 51.4032 77.7412 49.4942 79.6922C48.513 80.6944 48.489 81.963 49.3369 82.8239C50.2167 83.7141 51.4992 83.6715 52.5471 82.6454C54.4481 80.785 56.3332 78.9086 58.1809 76.9949C58.5968 76.5632 58.8235 75.9475 59.2741 75.1852H59.2767ZM77.5541 56.9759C78.2793 56.5228 78.9139 56.259 79.3751 55.8139C81.2415 54.0201 83.0626 52.1811 84.881 50.3367C85.9902 49.2093 86.0621 47.9566 85.1209 47.0451C84.2171 46.1708 82.9239 46.2828 81.8228 47.3649C80.1057 49.0574 78.4046 50.7658 76.7062 52.4796C76.3836 52.8048 75.9276 53.1326 75.8423 53.5271C75.6957 54.204 75.5704 55.0409 75.8503 55.6086C76.1303 56.1737 76.9142 56.4908 77.5541 56.9733V56.9759ZM61.4924 58.0127C61.2844 57.6796 61.0045 57.0132 60.5352 56.5282C58.7648 54.6864 56.9464 52.8954 55.1254 51.1016C53.9922 49.9849 52.7684 49.8969 51.8352 50.8138C50.926 51.7093 51.006 52.9993 52.0938 54.1054C53.9095 55.9498 55.7493 57.7729 57.589 59.5986C57.813 59.8198 58.0689 60.025 58.3435 60.1796C59.73 60.9499 61.4738 59.9371 61.4897 58.0181L61.4924 58.0127ZM40.0209 65.9766C40.0102 64.8359 39.061 63.9004 37.9039 63.895C36.7467 63.8897 35.7949 64.8119 35.7735 65.958C35.7522 67.144 36.7387 68.1169 37.9385 68.0929C39.093 68.0689 40.0289 67.1174 40.0182 65.9766H40.0209Z" fill="white"/>
<path d="M109 79.5083C108.376 81.3287 106.99 82.2935 105.278 82.9998C102.961 83.954 100.695 85.0335 98.3056 86.1022C98.6096 86.4327 98.8282 86.6913 99.0655 86.9311C101.244 89.1167 103.433 91.2916 105.606 93.4798C108.376 96.2703 108.363 99.5673 105.579 102.374C104.806 103.155 104.033 103.936 103.246 104.706C100.575 107.315 97.2418 107.321 94.5702 104.69C92.3198 102.475 90.1042 100.228 87.8698 97.9974C87.6245 97.7522 87.3632 97.523 87.0006 97.1845C85.8488 99.8312 84.7396 102.379 83.6278 104.925C83.1505 106.02 82.5133 106.963 81.3721 107.494C79.4044 108.411 77.0021 107.75 76.0822 105.783C75.1117 103.704 74.3705 101.516 73.5679 99.3621C69.9871 89.7404 66.4143 80.1187 62.8495 70.4916C61.3751 66.507 63.0628 62.741 66.8009 61.5522C68.2914 61.0778 69.7418 61.2138 71.1736 61.7441C82.7612 66.0379 94.3435 70.3424 105.934 74.6308C107.563 75.2332 108.544 76.3766 108.995 78.0211V79.511L109 79.5083ZM104.419 78.6874C103.902 78.4688 103.625 78.3382 103.337 78.2316C94.1436 74.8201 84.9476 71.4112 75.7516 68.0022C73.7599 67.264 71.7762 66.5044 69.7738 65.7901C68.2914 65.2623 66.9289 65.7821 66.6863 67.0561C66.5636 67.7064 66.6863 68.4767 66.9236 69.1137C70.9603 80.0734 75.0317 91.0197 79.0978 101.971C79.2391 102.355 79.4044 102.728 79.6257 103.28C79.8763 102.768 80.055 102.44 80.2043 102.099C81.4948 99.1462 82.7772 96.193 84.0651 93.2399C85.0809 90.9104 86.558 90.6386 88.3711 92.4483C91.432 95.5054 94.4875 98.5678 97.5537 101.62C98.5589 102.619 99.2655 102.616 100.279 101.633C101.041 100.892 101.79 100.135 102.537 99.3781C103.665 98.2373 103.662 97.5816 102.508 96.4249C99.5268 93.4371 96.5379 90.4573 93.557 87.4722C91.7573 85.6705 92.0372 84.2152 94.3862 83.1678C97.6497 81.7098 100.916 80.2573 104.422 78.6954L104.419 78.6874Z" fill="#EF4623"/>
<path d="M53.9306 4.29378C39.1008 4.29378 24.2737 4.29378 9.44384 4.30177C8.73994 4.30177 8.00939 4.30977 7.33215 4.48035C5.50575 4.93878 4.3086 6.57527 4.2766 8.60622C4.24461 10.6265 4.2686 12.6495 4.2686 14.6698C4.2686 29.3502 4.2686 44.0333 4.2686 58.7137C4.2686 62.3465 5.79104 63.855 9.45984 63.855C15.7736 63.855 22.09 63.855 28.4037 63.8604C28.897 63.8604 29.4009 63.879 29.8835 63.975C30.8807 64.1696 31.5393 65.0331 31.5206 66.0379C31.5019 67.0001 30.8567 67.8183 29.9102 68.0182C29.4969 68.1062 29.0676 68.1328 28.6437 68.1328C22.1513 68.1408 15.6589 68.1488 9.16655 68.1328C4.63121 68.1222 1.40769 65.8247 0.322514 61.7974C0.0852155 60.9206 0.0132261 59.9771 0.0132261 59.0629C-0.00277159 42.3941 -0.000105314 25.7254 0.00522724 9.05932C0.00789351 3.64078 3.53271 0.0932795 8.98258 0.015986C11.2169 -0.0159975 13.4513 0.0106554 15.6883 0.0106554C43.2895 0.0106554 70.8882 0.015986 98.4894 0.00265956C101.529 0.00265956 104.131 0.860884 106.078 3.31295C107.371 4.94411 107.891 6.83114 107.893 8.85942C107.909 25.6694 107.904 42.4767 107.901 59.2867C107.901 64.5214 103.998 67.9969 99.7692 68.0715C97.3963 68.1115 95.0206 68.1222 92.6503 68.0209C91.5704 67.9756 90.8799 67.0188 90.8932 65.9713C90.9065 64.9238 91.6024 64.1242 92.701 63.943C93.0822 63.879 93.4768 63.863 93.8634 63.8604C95.4605 63.8524 97.055 63.8604 98.6521 63.855C99.0414 63.855 99.4333 63.8417 99.8199 63.8017C101.774 63.6072 103.222 62.2399 103.521 60.2836C103.595 59.7958 103.619 59.2947 103.619 58.8017C103.625 42.3115 103.627 25.8213 103.611 9.33118C103.611 8.59556 103.553 7.82795 103.339 7.12965C102.79 5.32258 101.246 4.3231 99.0574 4.30177C96.2551 4.27512 93.4528 4.29378 90.6506 4.29378C78.4124 4.29378 66.1715 4.29378 53.9333 4.29378H53.9306Z" fill="#EF4623"/>
<path d="M37.6664 31.589C38.0104 31.7756 38.3837 31.8769 38.613 32.1167C39.3329 32.8657 40.3167 33.556 40.6233 34.4649C41.5405 37.1968 41.4819 39.9953 40.0741 42.594C39.0422 44.4997 37.2318 45.3552 35.1468 45.4379C32.3152 45.5498 29.4757 45.5232 26.6387 45.4938C25.087 45.4779 24.5937 44.9368 24.591 43.4336C24.5857 36.2373 24.5857 29.0437 24.591 21.8474C24.591 20.4454 25.0443 19.7738 26.2841 19.7631C29.329 19.7338 32.3872 19.6778 35.4134 19.931C38.2397 20.1656 39.8395 21.6422 40.3221 24.1609C40.8526 26.9248 40.394 29.9099 37.9331 31.3411C37.8504 31.3891 37.7891 31.4744 37.6638 31.5944L37.6664 31.589ZM29.2197 41.4959C30.2969 41.4959 31.318 41.4959 32.3366 41.4959C35.5574 41.4906 36.6799 40.3365 36.5786 37.1115C36.5653 36.6877 36.5093 36.2639 36.4293 35.8482C36.1547 34.4009 35.4348 33.5667 33.9923 33.4414C32.4219 33.3055 30.8301 33.4094 29.2197 33.4094V41.4959ZM29.2304 23.7611V29.718C30.6381 29.718 31.9766 29.758 33.3124 29.7073C35.0082 29.646 35.912 28.5533 35.9387 26.6369C35.9627 25.0457 34.9762 23.8623 33.4217 23.7771C32.0539 23.7024 30.6755 23.7611 29.2304 23.7611Z" fill="#EF4623"/>
<path d="M61.199 29.798C61.199 32.8471 61.375 35.9068 61.1563 38.9399C60.871 42.8872 58.3967 45.2513 54.448 45.6351C52.0617 45.867 49.694 45.7604 47.5637 44.4171C45.6466 43.207 44.6681 41.4026 44.5108 39.2171C44.3455 36.9223 44.3535 34.6141 44.3375 32.3113C44.3135 28.8011 44.3268 25.2883 44.3321 21.7781C44.3321 20.3335 45.0414 19.7152 46.6491 19.7205C48.2542 19.7258 48.9501 20.3442 48.9501 21.7914C48.9528 26.7915 48.9501 31.7916 48.9501 36.7944C48.9501 37.2555 48.9448 37.7165 48.9715 38.1776C49.1074 40.4405 50.4592 41.6798 52.7922 41.6932C55.1599 41.7065 56.5997 40.5204 56.6343 38.2416C56.717 32.887 56.685 27.5325 56.6983 22.1779C56.6983 21.3676 56.557 20.4828 57.5035 20.051C58.562 19.5686 59.6845 19.5073 60.6471 20.1816C61.0177 20.4428 61.2683 21.1198 61.279 21.6129C61.3376 24.3421 61.3083 27.074 61.3083 29.806H61.1963L61.199 29.798Z" fill="#EF4623"/>
<path d="M73.4692 30.8241C75.2316 27.5005 76.8873 24.3768 78.5431 21.2504C79.4976 19.4513 81.604 19.2408 82.9398 20.8133C83.4437 21.405 83.2517 21.9727 82.9051 22.5724C80.7721 26.2505 78.6764 29.9499 76.5247 33.6173C76.0021 34.5049 75.7328 35.3818 75.7568 36.4186C75.8128 38.7587 75.7808 41.0988 75.7728 43.4416C75.7675 44.9048 75.0796 45.5045 73.4532 45.4965C71.8427 45.4912 71.1548 44.8755 71.1495 43.4203C71.1442 40.9016 71.1815 38.3829 71.1228 35.8668C71.1095 35.2298 70.9229 34.5289 70.6109 33.9745C68.5019 30.2431 66.3342 26.5437 64.1879 22.8309C63.3587 21.397 63.604 20.704 65.1504 20.067C66.8861 19.3527 67.5367 19.5846 68.4032 21.2264C70.0537 24.3528 71.7041 27.4818 73.4692 30.8241Z" fill="#EF4623"/>
<path d="M65.0918 49.3959C65.0918 48.0845 65.0678 46.7705 65.0998 45.4592C65.1344 44.0173 65.9396 43.1324 67.1715 43.1084C68.3713 43.0845 69.3178 43.98 69.3471 45.3739C69.4031 48.1032 69.4005 50.8351 69.3498 53.5644C69.3231 54.9663 68.3979 55.8805 67.2035 55.8752C65.953 55.8699 65.1264 54.937 65.0971 53.4391C65.0704 52.0931 65.0918 50.7445 65.0918 49.3959Z" fill="#EF4623"/>
<path d="M50.71 63.8924C52.0218 63.8924 53.3336 63.8657 54.6454 63.8977C56.1465 63.935 57.061 64.7693 57.0557 66.022C57.0504 67.2267 56.1625 68.1142 54.7334 68.1409C52.0404 68.1942 49.3422 68.1942 46.6492 68.1435C45.1854 68.1169 44.2496 67.176 44.2896 65.95C44.3296 64.732 45.2148 63.9377 46.6679 63.8977C48.0143 63.8604 49.3635 63.8897 50.71 63.8897V63.8924Z" fill="#EF4623"/>
<path d="M59.2767 75.1852C58.8261 75.9475 58.5994 76.5631 58.1835 76.9949C56.3384 78.9086 54.4507 80.785 52.5497 82.6453C51.5018 83.6715 50.2193 83.7141 49.3395 82.8239C48.4889 81.963 48.5156 80.6943 49.4968 79.6922C51.4058 77.7412 53.3469 75.8195 55.2933 73.9032C55.9812 73.2235 56.8824 72.9064 57.7116 73.4154C58.3301 73.7966 58.7274 74.5402 59.2793 75.1852H59.2767Z" fill="#EF4623"/>
<path d="M77.554 56.976C76.9167 56.4935 76.1302 56.1764 75.8502 55.6113C75.5703 55.0436 75.6956 54.2067 75.8422 53.5297C75.9276 53.1353 76.3835 52.8074 76.7061 52.4823C78.4045 50.7712 80.1056 49.0627 81.8227 47.3676C82.9212 46.2828 84.217 46.1735 85.1209 47.0477C86.0594 47.9566 85.9901 49.212 84.8809 50.3394C83.0652 52.1838 81.2414 54.0228 79.3751 55.8166C78.9138 56.2617 78.2792 56.5255 77.554 56.9786V56.976Z" fill="#EF4623"/>
<path d="M61.4923 58.0127C61.4763 59.9344 59.7326 60.9472 58.3461 60.1743C58.0715 60.0223 57.8155 59.8171 57.5916 59.5932C55.7545 57.7702 53.9148 55.9471 52.0964 54.1001C51.0085 52.9966 50.9285 51.704 51.8377 50.8084C52.7683 49.8916 53.9921 49.9822 55.1279 51.0963C56.949 52.8874 58.7674 54.6811 60.5378 56.5228C61.0044 57.0079 61.2843 57.6742 61.495 58.0074L61.4923 58.0127Z" fill="#EF4623"/>
<path d="M40.0208 65.9766C40.0314 67.1174 39.0956 68.0716 37.9411 68.0929C36.7413 68.1169 35.7521 67.144 35.7761 65.958C35.7974 64.8092 36.7493 63.8897 37.9064 63.895C39.0609 63.9004 40.0128 64.8359 40.0234 65.9766H40.0208Z" fill="#EF4623"/>
</g>
<defs>
<clipPath id="clip0_769_461">
<rect width="109" height="107.899" fill="white"/>
</clipPath>
</defs>
</svg>
