<svg width="91" height="105" viewBox="0 0 91 105" fill="none" xmlns="http://www.w3.org/2000/svg">
<g clip-path="url(#clip0_769_448)">
<path d="M64.3188 10.6635C64.2979 10.747 64.277 10.8409 64.2562 10.9244H63.0249C43.2931 10.9244 23.5613 10.9244 3.82949 10.9244C3.32863 10.9244 2.82777 10.9139 2.33735 10.9661C1.15824 11.0809 0.271299 11.9052 0.0834767 13.0739C0 13.5643 0 14.0652 0 14.566C0 39.2125 0 63.859 0 88.5055C0 88.9229 0 89.3507 0.0417383 89.7681C0.198257 91.2498 1.18954 92.1159 2.67125 92.095C4.13209 92.0741 5.11295 91.1454 5.20686 89.6742C5.23816 89.215 5.22773 88.7559 5.22773 88.2968C5.22773 64.7981 5.22773 41.2994 5.22773 17.8008C5.22773 17.3103 5.22773 16.8199 5.22773 16.246H64.5588C64.1205 16.5069 63.9223 16.6217 63.7344 16.726C60.8649 18.2703 57.9954 19.8146 55.1259 21.359C54.2703 21.8181 53.6025 22.4024 53.5294 23.4459C53.4564 24.5311 53.8529 25.3971 54.7503 26.0128C55.7311 26.691 56.712 26.451 57.6719 25.9293C63.7762 22.6424 69.8908 19.3451 76.0055 16.0686C77.0177 15.526 77.7585 14.8373 77.769 13.5956C77.7898 12.3122 77.0698 11.5609 76.0055 10.9974C72.656 9.2131 69.3169 7.40792 65.9674 5.61317C63.1292 4.08972 60.3015 2.5454 57.4528 1.05326C55.9085 0.249793 54.4894 0.719349 53.7798 2.16976C53.0912 3.57843 53.5503 4.86188 55.105 5.70708C58.1624 7.36618 61.2301 9.00441 64.2979 10.6531L64.3188 10.6635ZM85.7618 89.1107H26.4621C26.9212 88.8498 27.1195 88.7351 27.3177 88.6307C30.1559 87.0968 32.9837 85.5734 35.8219 84.0499C36.6776 83.5908 37.3558 83.0169 37.4602 81.9839C37.5645 80.8987 37.1784 80.0222 36.2915 79.3857C35.3211 78.6866 34.3506 78.8848 33.3698 79.417C27.2656 82.7143 21.1509 86.0012 15.0362 89.2777C13.9928 89.8411 13.2206 90.5507 13.2206 91.8341C13.2206 93.128 13.9928 93.8376 15.0467 94.3906C18.9075 96.4462 22.7474 98.5227 26.5978 100.589C28.9247 101.841 31.2411 103.114 33.5994 104.324C35.2272 105.17 36.8549 104.481 37.3767 102.801C37.7836 101.507 37.3245 100.422 35.9263 99.6601C33.1715 98.1471 30.3959 96.6758 27.6308 95.1836C27.3177 95.0167 27.0151 94.8184 26.7021 94.641C26.723 94.568 26.7438 94.5054 26.7647 94.4323H27.9751C44.5974 94.4323 61.2197 94.4323 77.842 94.4323C81.2958 94.4323 84.7497 94.4532 88.2035 94.4219C89.9461 94.401 90.8852 93.4515 91 91.7194C91.0209 91.4481 91.0104 91.1872 91.0104 90.9159C91.0104 66.1859 91.0104 41.456 91.0104 16.726C91.0104 16.3086 91.0104 15.8808 90.9478 15.4634C90.76 14.0652 89.7687 13.2408 88.3288 13.2617C86.9096 13.2826 85.9184 14.1904 85.814 15.5782C85.7723 16.0791 85.7931 16.5799 85.7931 17.0703C85.7931 40.569 85.7931 64.0677 85.7931 87.5664V89.0898L85.7618 89.1107ZM48.1765 37.0108C52.392 36.1343 55.9711 39.0247 56.305 43.4803C56.4302 45.1498 57.4632 46.0993 59.0806 46.0159C60.5936 45.9428 61.5432 44.8785 61.5327 43.2507C61.5014 37.2404 56.5867 32.044 50.5869 31.6683C49.7938 31.6161 49.0008 31.5848 48.093 31.5431C48.093 30.291 48.2182 29.1327 48.0513 28.0162C47.9469 27.2858 47.5817 26.3049 47.0287 26.0128C46.2774 25.6163 45.2026 25.585 44.3365 25.7623C43.3557 25.9606 42.9279 26.8789 42.907 27.891C42.8861 29.1014 42.907 30.3118 42.907 31.6579C42.0096 31.6579 41.3314 31.6266 40.6427 31.6579C35.8115 31.8875 32.2533 34.11 30.5003 38.6595C28.6638 43.4385 29.2794 47.9671 32.775 51.8592C35.1437 54.4888 38.2845 55.3653 41.7279 55.2714C42.6253 55.2505 42.9174 55.4905 42.907 56.4192C42.8548 60.0608 42.8861 63.7129 42.8861 67.365C42.8861 67.6989 42.8444 68.0328 42.8235 68.3563C38.6184 69.2433 35.0185 66.3424 34.695 61.8869C34.5698 60.2173 33.5368 59.2678 31.9194 59.3408C30.4064 59.4139 29.4568 60.4782 29.4673 62.0956C29.509 68.1059 34.4237 73.3023 40.4131 73.678C41.2062 73.7301 41.9992 73.7614 42.907 73.8136C42.907 75.0553 42.7714 76.224 42.9592 77.3405C43.0844 78.0918 43.4809 79.01 44.0652 79.4483C45.7139 80.6796 47.9678 79.5318 48.093 77.4761C48.166 76.2657 48.1034 75.0553 48.1034 73.7406C51.4738 73.8449 54.5207 73.4275 57.098 71.3719C59.7067 69.2954 61.0527 66.5094 61.3762 63.2538C61.6788 60.3008 61.1049 57.5148 59.4563 55.0105C56.785 50.9514 52.726 49.8662 48.1869 50.0436V37.0108H48.1765Z" fill="white"/>
<path d="M64.3188 10.6636C61.251 9.01497 58.1832 7.37674 55.1259 5.71764C53.5712 4.87244 53.112 3.58898 53.8007 2.18032C54.5103 0.729908 55.9398 0.260352 57.4737 1.06382C60.3223 2.55596 63.1501 4.10028 65.9883 5.62373C69.3274 7.41848 72.6664 9.22366 76.0264 11.008C77.0907 11.5714 77.8107 12.3227 77.7898 13.6062C77.769 14.8479 77.0281 15.5366 76.0264 16.0792C69.9117 19.3556 63.797 22.653 57.6928 25.9399C56.7224 26.4616 55.752 26.7016 54.7711 26.0233C53.8738 25.4077 53.4772 24.5416 53.5503 23.4564C53.6233 22.413 54.2911 21.8286 55.1468 21.3695C58.0163 19.8252 60.8858 18.2809 63.7553 16.7366C63.9536 16.6322 64.1414 16.5174 64.5796 16.2566H5.22773C5.22773 16.8305 5.22773 17.3209 5.22773 17.8113C5.22773 41.31 5.22773 64.8087 5.22773 88.3074C5.22773 88.7665 5.23816 89.2256 5.20686 89.6847C5.11295 91.156 4.13209 92.0847 2.67125 92.1056C1.18954 92.1264 0.198257 91.2604 0.0417383 89.7786C0 89.3613 0 88.9334 0 88.5161C0 63.8591 0 39.2127 0 14.5662C0 14.0653 0 13.5644 0.0834767 13.074C0.271299 11.9053 1.15824 11.0914 2.33735 10.9662C2.82777 10.9141 3.33907 10.9245 3.82949 10.9245C23.5613 10.9245 43.2931 10.9245 63.0249 10.9245H64.2562C64.277 10.841 64.2979 10.7471 64.3188 10.6636Z" fill="#EF4623"/>
<path d="M85.7619 89.1108V87.5873C85.7619 64.0887 85.7619 40.59 85.7619 17.0913C85.7619 16.5904 85.7514 16.0896 85.7827 15.5992C85.8871 14.2114 86.8888 13.3035 88.2975 13.2827C89.7374 13.2618 90.7392 14.0861 90.9165 15.4844C90.9687 15.9018 90.9792 16.3296 90.9792 16.747C90.9792 41.4769 90.9792 66.2069 90.9792 90.9368C90.9792 91.2081 90.9791 91.4794 90.9687 91.7403C90.8539 93.4724 89.9148 94.422 88.1722 94.4429C84.7184 94.4742 81.2646 94.4533 77.8107 94.4533C61.1884 94.4533 44.5661 94.4533 27.9438 94.4533H26.7334C26.7126 94.5263 26.6917 94.589 26.6708 94.662C26.9838 94.8394 27.2865 95.0376 27.5995 95.2046C30.3647 96.6967 33.1403 98.168 35.895 99.681C37.2932 100.443 37.7523 101.528 37.3454 102.822C36.8132 104.491 35.1959 105.18 33.5681 104.345C31.2203 103.135 28.9038 101.851 26.5665 100.61C22.7161 98.5437 18.8657 96.4672 15.0154 94.4116C13.9719 93.8585 13.1893 93.1385 13.1893 91.8551C13.1893 90.5612 13.9615 89.8621 15.0049 89.2986C21.1196 86.0222 27.2343 82.7353 33.3385 79.4379C34.3194 78.9058 35.2898 78.7179 36.2602 79.4066C37.1471 80.0431 37.5332 80.9196 37.4289 82.0048C37.3245 83.0379 36.6463 83.6118 35.7906 84.0709C32.9524 85.5943 30.1142 87.1282 27.2865 88.6517C27.0882 88.756 26.9004 88.8708 26.4308 89.1317H85.741L85.7619 89.1108Z" fill="#EF4623"/>
<path d="M48.1765 37.0109V50.0437C52.7155 49.8768 56.7641 50.962 59.4458 55.0106C61.0945 57.5149 61.6684 60.3113 61.3658 63.2539C61.0319 66.5199 59.6962 69.2955 57.0876 71.372C54.5102 73.4276 51.4633 73.845 48.093 73.7407C48.093 75.0554 48.1452 76.2658 48.0825 77.4762C47.9678 79.5318 45.7139 80.6901 44.0548 79.4484C43.4705 79.0101 43.0739 78.0919 42.9487 77.3406C42.7609 76.2241 42.8966 75.0554 42.8966 73.8137C41.9887 73.7615 41.1957 73.7302 40.4027 73.678C34.4028 73.3024 29.4985 68.0955 29.4568 62.0957C29.4464 60.4783 30.3959 59.4035 31.9089 59.3409C33.5263 59.2679 34.5593 60.2174 34.6845 61.887C35.008 66.3425 38.6079 69.2433 42.8131 68.3564C42.8339 68.0434 42.8757 67.7095 42.8757 67.3651C42.8757 63.713 42.8444 60.0714 42.8966 56.4192C42.907 55.4906 42.6148 55.2401 41.7174 55.2714C38.274 55.3654 35.1332 54.4888 32.7646 51.8593C29.269 47.9672 28.6533 43.4386 30.4898 38.6596C32.2428 34.1101 35.801 31.8875 40.6322 31.658C41.3105 31.6267 41.9992 31.658 42.8966 31.658C42.8966 30.3119 42.8861 29.1015 42.8966 27.8911C42.907 26.8789 43.3452 25.9607 44.3261 25.7624C45.1922 25.585 46.2669 25.6268 47.0182 26.0129C47.5713 26.305 47.926 27.2963 48.0408 28.0163C48.2078 29.1328 48.0825 30.3015 48.0825 31.5432C48.9904 31.5849 49.7834 31.6267 50.5764 31.6684C56.5763 32.0441 61.491 37.2405 61.5223 43.2508C61.5223 44.8682 60.5832 45.9429 59.0702 46.016C57.4528 46.089 56.4198 45.1499 56.2946 43.4804C55.9607 39.0144 52.3816 36.1344 48.166 37.0109H48.1765ZM42.8861 36.7292C41.5192 36.8961 40.3192 36.8857 39.2027 37.1987C35.9158 38.1065 34.0585 41.6021 34.9663 45.1708C35.8949 48.8437 38.7123 50.2733 42.2705 50.0333C42.5 50.0228 42.8548 49.4281 42.8653 49.1046C42.9174 46.882 42.8966 44.6595 42.8966 42.4369C42.8966 40.6422 42.8966 38.8474 42.8966 36.7396L42.8861 36.7292ZM48.1765 68.4399C51.6825 68.8155 54.1555 67.6782 55.4494 65.1947C56.7432 62.6904 56.4198 59.4974 54.6355 57.421C53.1433 55.6784 50.2112 54.8228 48.1765 55.5219V68.4295V68.4399Z" fill="#EF4623"/>
<path d="M42.8861 36.7292C42.8861 38.837 42.8861 40.6317 42.8861 42.4265C42.8861 44.649 42.907 46.8716 42.8548 49.0942C42.8548 49.4281 42.4896 50.0124 42.2601 50.0228C38.7019 50.2524 35.8845 48.8229 34.9559 45.1603C34.0585 41.5917 35.9158 38.0961 39.1923 37.1883C40.3088 36.8753 41.5088 36.8857 42.8757 36.7188L42.8861 36.7292Z" fill="white"/>
<path d="M48.1765 68.4399V55.5323C50.2112 54.8227 53.1433 55.6888 54.6355 57.4314C56.4093 59.4974 56.7432 62.6904 55.4494 65.2051C54.1659 67.6886 51.6825 68.8259 48.1765 68.4503V68.4399Z" fill="white"/>
</g>
<defs>
<clipPath id="clip0_769_448">
<rect width="91" height="104.033" fill="white" transform="translate(0 0.667236)"/>
</clipPath>
</defs>
</svg>
