<svg width="94" height="94" viewBox="0 0 94 94" fill="none" xmlns="http://www.w3.org/2000/svg">
<g clip-path="url(#clip0_613_314)">
<path d="M47.0046 70.6546C51.1301 70.6546 55.2648 70.7008 59.3902 70.6454C65.8323 70.5531 69.9301 64.0636 67.0874 58.4235C65.0847 54.4449 62.0206 51.4263 58.1628 49.2108C57.6828 48.9339 57.3875 49.0078 56.9722 49.3308C50.7978 54.2141 43.3129 54.1956 37.0001 49.3216C36.7693 49.1462 36.2617 49.0447 36.031 49.1739C32.3577 51.2786 29.2013 53.9372 27.2632 57.7957C26.3772 59.5681 25.7773 61.4328 26.1095 63.4544C26.8202 67.7561 30.235 70.6177 34.7297 70.6546C38.8182 70.6915 42.916 70.6546 47.0046 70.6546ZM46.9584 49.497C53.8804 49.5155 59.1134 44.3922 59.178 37.5243C59.2426 30.6841 53.9358 25.3578 47.0323 25.3301C40.138 25.3024 34.8312 30.5733 34.822 37.4412C34.822 44.2815 40.0365 49.4693 46.9492 49.4878L46.9584 49.497ZM8.07556 43.7368C4.93762 45.7769 2.22421 48.1585 0.710616 51.6294C-1.57824 56.8634 1.88273 62.1067 7.59564 62.1251C12.2472 62.1343 16.8987 62.1251 21.5503 62.1251C21.8918 62.1251 22.2332 62.0882 22.5655 62.079C23.2115 55.4418 27.4386 51.2694 32.3762 47.2723C30.8534 46.0446 29.3582 44.8353 27.8908 43.6537C22.2517 48.9524 13.9823 49.2108 8.08479 43.7368H8.07556ZM71.4806 62.0236C71.5636 62.042 71.7205 62.1159 71.8867 62.1159C76.9628 62.1159 82.0388 62.2267 87.1057 62.079C92.431 61.922 95.6705 55.9588 93.114 51.214C91.5727 48.3524 89.413 46.0538 86.7365 44.2261C86.1182 43.8014 85.7398 43.8107 85.1491 44.3276C81.9835 47.0508 78.3102 48.1585 74.1478 47.6139C71.0929 47.2077 68.5088 45.86 66.1276 43.626C64.614 44.8538 63.1281 46.063 61.6053 47.2908C66.6444 51.2048 70.6869 55.4787 71.4806 62.0236ZM76.0583 44.2722C82.0758 44.2722 86.6073 39.7675 86.5796 33.8226C86.5612 27.8501 82.0388 23.3823 76.0398 23.3823C70.0408 23.3823 65.5 27.8963 65.5 33.8411C65.5 39.7767 70.0593 44.2814 76.0583 44.2722ZM7.52181 33.8042C7.49412 39.6474 12.0995 44.3553 17.8863 44.3922C23.673 44.4291 28.4815 39.6751 28.5091 33.8873C28.5368 28.1178 23.8484 23.3361 18.1078 23.2715C12.3487 23.2069 7.54027 27.9886 7.52181 33.8042ZM47.3368 94C49.6811 93.7508 52.4222 93.6308 55.0986 93.16C69.4778 90.6122 80.433 83.0889 87.7979 70.4146C88.6655 68.9284 88.5732 67.9591 87.5672 67.4053C86.5796 66.8606 85.6936 67.3037 84.863 68.7807C82.1681 73.5624 78.7163 77.7256 74.3878 81.095C64.4017 88.8768 53.0497 91.803 40.581 90.0122C27.1617 88.0829 16.8249 81.2519 9.67223 69.6854C9.30306 69.0946 9.00772 68.4484 8.60163 67.8853C8.04788 67.1376 7.27262 66.9714 6.46044 67.4145C5.63904 67.8668 5.436 68.6146 5.7221 69.4915C5.80517 69.75 5.96206 69.9992 6.10973 70.2392C15.2467 85.849 29.1367 93.2523 47.3276 94H47.3368ZM47.0784 0C42.1315 0 37.3046 0.720024 32.5977 2.197C24.2452 4.81862 17.1848 9.39723 11.5273 16.1082C10.7244 17.059 10.7613 18.0467 11.5642 18.7022C12.3026 19.3022 13.2993 19.1452 14.0654 18.296C14.6745 17.6221 15.2559 16.9206 15.8927 16.2651C22.7685 9.22184 31.121 5.10478 40.8394 3.83089C52.4591 2.29854 63.2019 4.68938 72.7265 11.6312C75.3292 13.5328 77.535 15.9882 79.8792 18.2314C80.7652 19.0806 81.6974 19.3206 82.4542 18.7022C83.2756 18.0283 83.2663 17.0498 82.4173 16.0251C82.1496 15.7021 81.8727 15.379 81.5958 15.0743C72.3204 4.92939 60.6547 0.276932 47.0784 0ZM45.9617 83.8643C50.7793 83.8089 54.4803 83.3196 58.0797 82.2119C65.1954 80.0149 71.1299 76.0733 75.7445 70.1931C76.4921 69.233 76.4551 68.1992 75.6799 67.5807C74.8954 66.953 73.9079 67.1376 73.1234 68.0792C72.6712 68.6146 72.2466 69.1684 71.7759 69.6854C65.5277 76.5256 57.7013 80.0057 48.5274 80.4303C40.7379 80.7903 33.5299 78.8241 27.254 74.1255C24.9282 72.3808 22.9808 70.1285 20.9135 68.0607C20.0275 67.1745 19.0215 66.953 18.2554 67.6638C17.5448 68.3192 17.5632 69.2977 18.357 70.2854C25.7219 79.4241 35.468 83.5504 45.9524 83.8643H45.9617ZM69.6624 18.2129C69.3948 17.9083 69.0164 17.2713 68.4626 16.8836C58.6888 10.1449 48.0567 8.34489 36.6217 11.5111C32.5146 12.6466 28.7491 14.5482 25.2974 17.0683C24.3467 17.7606 24.1345 18.6837 24.7067 19.5053C25.2789 20.3361 26.2111 20.4561 27.1986 19.8283C27.4016 19.6991 27.6047 19.5514 27.7985 19.4129C38.8921 11.6404 53.7789 11.345 65.1401 18.6837C65.8138 19.1175 66.4506 19.6253 67.1428 20.0222C68.2596 20.6591 69.6163 19.8745 69.6532 18.2129H69.6624Z" fill="white"/>
<path d="M47.0045 70.6546C42.9159 70.6546 38.8182 70.6823 34.7296 70.6546C30.2349 70.6177 26.8201 67.7561 26.1095 63.4544C25.7772 61.4328 26.3771 59.5681 27.2631 57.7958C29.2013 53.9372 32.3577 51.2786 36.0309 49.1739C36.2617 49.0447 36.7693 49.1462 37 49.3216C43.3128 54.1956 50.7977 54.2141 56.9721 49.3309C57.3874 49.0078 57.6828 48.9339 58.1627 49.2109C62.0205 51.4356 65.0754 54.4449 67.0874 58.4235C69.93 64.0637 65.8322 70.5623 59.3902 70.6454C55.2647 70.7008 51.1392 70.6546 47.0045 70.6546Z" fill="#EF4623"/>
<path d="M46.9586 49.4971C40.0458 49.4786 34.8221 44.2907 34.8313 37.4505C34.8313 30.5734 40.1474 25.3116 47.0416 25.3393C53.9359 25.367 59.2519 30.6934 59.1873 37.5336C59.1227 44.3923 53.8897 49.5247 46.9678 49.5063L46.9586 49.4971Z" fill="#EF4623"/>
<path d="M8.07553 43.7368C13.9823 49.2108 22.2517 48.9431 27.8815 43.6537C29.349 44.8353 30.8441 46.0445 32.3669 47.2723C27.4293 51.2601 23.2023 55.4418 22.5562 62.0789C22.224 62.0974 21.8825 62.1251 21.541 62.1251C16.8895 62.1251 12.2379 62.1343 7.58638 62.1251C1.86424 62.1158 -1.58751 56.8726 0.70135 51.6293C2.21495 48.1584 4.92835 45.7768 8.0663 43.7368H8.07553Z" fill="#EF4623"/>
<path d="M71.4805 62.0236C70.6868 55.4788 66.6444 51.2048 61.6052 47.2908C63.1281 46.0631 64.614 44.8538 66.1276 43.6261C68.4995 45.86 71.0929 47.2078 74.1478 47.6139C78.3102 48.1678 81.9834 47.0508 85.1491 44.3277C85.749 43.8107 86.1181 43.8015 86.7365 44.2261C89.413 46.0539 91.5726 48.3524 93.1139 51.214C95.6704 55.9588 92.4309 61.9221 87.1057 62.079C82.0388 62.2267 76.9627 62.1159 71.8866 62.1159C71.7205 62.1159 71.5636 62.0421 71.4805 62.0236Z" fill="#EF4623"/>
<path d="M76.0583 44.2722C70.0593 44.2722 65.5 39.7767 65.5 33.8411C65.5 27.8963 70.0408 23.3916 76.0398 23.3823C82.0388 23.3823 86.5612 27.8502 86.5796 33.8227C86.5981 39.7675 82.0758 44.263 76.0583 44.2722Z" fill="#EF4623"/>
<path d="M7.52185 33.8041C7.54954 27.9886 12.3488 23.2161 18.1078 23.2715C23.8484 23.3361 28.5369 28.1178 28.5092 33.8872C28.4815 39.6751 23.6731 44.4291 17.8863 44.3922C12.0996 44.3552 7.49416 39.6474 7.52185 33.8041Z" fill="#EF4623"/>
<path d="M47.3368 94C29.146 93.2523 15.2559 85.849 6.11897 70.2392C5.98053 69.9992 5.82363 69.7592 5.73134 69.4915C5.44523 68.6238 5.64827 67.8669 6.46968 67.4145C7.28185 66.9715 8.05711 67.1376 8.61087 67.8853C9.02618 68.4484 9.31229 69.0946 9.68146 69.6854C16.8341 81.2519 27.1709 88.0829 40.5902 90.0122C53.059 91.803 64.411 88.8676 74.397 81.095C78.7255 77.7256 82.1773 73.5624 84.8722 68.7807C85.7029 67.313 86.5889 66.8699 87.5764 67.4053C88.5824 67.9592 88.6655 68.9284 87.8071 70.4146C80.4422 83.0797 69.4871 90.6122 55.1079 93.16C52.4314 93.6308 49.6995 93.7508 47.3461 94H47.3368Z" fill="#EF4623"/>
<path d="M47.0785 0C60.6547 0.276932 72.3205 4.92939 81.6051 15.0651C81.8912 15.379 82.1589 15.6928 82.4265 16.0159C83.2664 17.0406 83.2848 18.0283 82.4634 18.6929C81.7066 19.3114 80.7745 19.0714 79.8885 18.2221C77.5442 15.979 75.3385 13.5235 72.7358 11.6219C63.2112 4.68015 52.4684 2.29854 40.8487 3.82166C31.1211 5.10478 22.7686 9.21261 15.902 16.2559C15.2652 16.9021 14.6838 17.6129 14.0746 18.2868C13.3086 19.136 12.3118 19.2929 11.5735 18.6929C10.7706 18.0467 10.7429 17.0498 11.5366 16.099C17.1849 9.388 24.2545 4.80939 32.607 2.18776C37.3047 0.720023 42.1316 0 47.0785 0Z" fill="#EF4623"/>
<path d="M45.9617 83.8643C35.4773 83.5504 25.7312 79.4149 18.3662 70.2854C17.5725 69.2976 17.5448 68.3284 18.2647 67.6637C19.0307 66.9529 20.0367 67.1837 20.9227 68.0607C22.9901 70.1284 24.9375 72.3808 27.2632 74.1255C33.5391 78.8241 40.7472 80.7996 48.5367 80.4303C57.7106 80.0057 65.537 76.5163 71.7852 69.6853C72.2559 69.1684 72.6804 68.6145 73.1326 68.0791C73.9171 67.1468 74.9047 66.9529 75.6892 67.5807C76.4644 68.1991 76.5013 69.233 75.7538 70.1931C71.1391 76.0732 65.2047 80.0149 58.089 82.2119C54.4895 83.3289 50.7886 83.8089 45.9709 83.8643H45.9617Z" fill="#EF4623"/>
<path d="M69.6624 18.2128C69.6255 19.8652 68.2688 20.6499 67.1521 20.0221C66.4599 19.6252 65.8231 19.1175 65.1493 18.6836C53.7789 11.3542 38.8921 11.6403 27.8077 19.4129C27.6047 19.5514 27.4109 19.6991 27.2078 19.8283C26.2295 20.456 25.2882 20.336 24.7159 19.5052C24.1437 18.6836 24.356 17.7605 25.3066 17.0682C28.7584 14.5573 32.5147 12.6465 36.6309 11.5111C48.066 8.34483 58.6981 10.1449 68.4719 16.8836C69.0256 17.262 69.404 17.9082 69.6717 18.2128H69.6624Z" fill="#EF4623"/>
</g>
<defs>
<clipPath id="clip0_613_314">
<rect width="94" height="94" fill="white"/>
</clipPath>
</defs>
</svg>
