<svg width="129" height="129" viewBox="0 0 129 129" fill="none" xmlns="http://www.w3.org/2000/svg">
<g clip-path="url(#clip0_650_815)">
<path d="M58.1341 70.3094C52.2571 64.9933 53.5839 58.0905 56.9396 54.6004C60.8319 50.5544 67.1867 50.201 71.3987 53.8457C73.5084 55.6717 74.7691 57.98 75.0337 60.7485C75.4013 64.5883 73.9568 67.7397 71.0165 70.2395C76.3826 73.0558 77.5404 74.1787 80.7196 79.5831C87.611 73.0853 89.7758 59.0587 80.8041 49.3764C72.0787 39.9628 57.0205 39.9738 48.295 49.4353C39.3527 59.1324 41.5837 73.1074 48.4751 79.6089C50.4819 75.2942 53.6538 72.1907 58.1304 70.3131L58.1341 70.3094ZM13.9519 78.5302C21.6335 78.5302 27.8927 72.2974 27.9258 64.6104C27.9589 56.8682 21.6739 50.536 13.9555 50.536C6.22612 50.5324 -0.0404793 56.8498 -4.96075e-05 64.6068C0.04038 72.3306 6.25184 78.5302 13.9519 78.5339V78.5302ZM64.669 -1.21836e-06C57.0535 0.0073618 50.82 6.24752 50.8053 13.8756C50.7869 21.5773 57.0425 27.869 64.7058 27.858C72.2992 27.8469 78.5584 21.592 78.6025 13.975C78.643 6.32851 72.3249 -0.00736423 64.669 -1.21836e-06ZM115.07 50.525C107.436 50.5324 101.247 56.732 101.228 64.3895C101.21 72.1023 107.458 78.394 115.122 78.3719C122.719 78.3498 128.952 72.1097 129 64.4779C129.048 56.8204 122.755 50.5176 115.074 50.525H115.07ZM64.5404 129C72.1338 129.018 78.3453 122.841 78.3453 115.264C78.3453 107.684 72.1265 101.481 64.5514 101.507C57.0094 101.532 50.8641 107.655 50.8274 115.183C50.7869 122.767 56.9543 128.982 64.5404 129ZM77.9777 82.1528C76.548 76.649 70.7114 72.4042 64.5771 72.4042C58.4502 72.4042 52.5916 76.6711 51.1839 82.1565C58.4024 88.2384 70.8878 88.2384 77.9777 82.1565V82.1528ZM18.8402 101.278C18.8402 106.259 22.8795 110.331 27.856 110.368C32.8031 110.401 36.9122 106.34 36.9637 101.359C37.0188 96.3414 32.9097 92.2181 27.867 92.2291C22.8868 92.2402 18.8402 96.2972 18.8402 101.282V101.278ZM64.5294 69.0724C68.5135 69.0908 71.7369 65.9395 71.781 61.9782C71.8251 57.9175 68.6532 54.663 64.6286 54.6446C60.6334 54.6262 57.4284 57.7628 57.3843 61.7389C57.3402 65.8106 60.4974 69.054 64.5257 69.0724H64.5294ZM102.037 19.8102C102.015 23.812 105.187 27.0407 109.156 27.048C113.111 27.0554 116.364 23.8046 116.353 19.8507C116.342 15.9336 113.17 12.7306 109.267 12.6938C105.271 12.657 102.063 15.8158 102.037 19.8102ZM39.5732 33.1998C39.5512 29.6545 36.6513 26.7903 33.1486 26.8603C29.69 26.9265 26.8636 29.7834 26.8526 33.2293C26.8379 36.7341 29.7378 39.6351 33.2478 39.6241C36.8056 39.613 39.5953 36.7783 39.5732 33.1998ZM83.5607 47.5209C90.0294 41.0341 96.41 34.6356 102.651 28.3771C102.063 27.6776 101.398 26.8824 100.945 26.3412C94.451 32.817 88.0557 39.186 81.7634 45.4592C82.3405 46.1182 83.002 46.8766 83.5644 47.5209H83.5607ZM96.3107 92.0119C96.3291 89.5784 94.4105 87.6051 91.9995 87.583C89.6178 87.561 87.6073 89.5453 87.5853 91.9383C87.5632 94.3349 89.5259 96.334 91.926 96.3561C94.337 96.3782 96.2924 94.4417 96.3107 92.0082V92.0119ZM37.7429 93.525C40.9919 90.2779 44.2631 87.0014 47.5305 83.7359C46.8616 83.0806 46.1118 82.3516 45.4208 81.6779C42.2195 84.8955 38.93 88.2015 35.6368 91.5112C36.2911 92.1371 37.0115 92.8255 37.7392 93.525H37.7429ZM39.0293 40.9825C41.2639 43.2319 43.392 45.3709 45.3841 47.3773C46.053 46.7404 46.7991 46.0299 47.3615 45.4887C45.2481 43.3461 43.1384 41.2071 40.9956 39.035C40.3634 39.6609 39.6541 40.3604 39.0256 40.9825H39.0293ZM66.1759 90.0938H63.0408V98.1932H66.1759V90.0938ZM39.0697 66.142V62.9869H31.2925V66.142H39.0697ZM90.0368 66.1125H97.8838V63.0237H90.0368V66.1125ZM63.0371 31.1603V38.9577H66.1502V31.1603H63.0371ZM87.5779 85.7055C86.2217 84.2513 84.9574 82.8965 83.8621 81.7258C83.0425 82.4068 82.2412 83.0695 81.6642 83.5481C83.0278 84.9545 84.3178 86.2835 85.6483 87.6493C86.2952 86.9977 86.9972 86.2872 87.5779 85.7055Z" fill="white"/>
<path d="M58.1341 70.3094C53.6538 72.187 50.4819 75.2905 48.4788 79.6052C41.5837 73.1074 39.3564 59.1287 48.2987 49.4316C57.0242 39.9701 72.0824 39.9554 80.8078 49.3727C89.7795 59.0551 87.6147 73.0816 80.7233 79.5795C77.544 74.175 76.3863 73.0521 71.0202 70.2358C73.9605 67.736 75.405 64.5847 75.0374 60.7449C74.7728 57.9727 73.5121 55.6681 71.4024 53.842C67.1941 50.1973 60.8356 50.5545 56.9433 54.5968C53.5876 58.0831 52.2608 64.986 58.1378 70.3057L58.1341 70.3094Z" fill="#EF4623"/>
<path d="M13.9519 78.5302C6.25184 78.5302 0.04038 72.3306 -4.96075e-05 64.6068C-0.0404793 56.8498 6.22612 50.536 13.9555 50.536C21.6702 50.536 27.9589 56.8719 27.9258 64.6104C27.8927 72.2974 21.6335 78.5302 13.9519 78.5302Z" fill="#EF4623"/>
<path d="M64.6692 -1.21836e-06C72.3251 -0.00736423 78.6431 6.32851 78.6027 13.975C78.5623 21.592 72.2993 27.8469 64.7059 27.858C57.0427 27.869 50.7871 21.5773 50.8055 13.8756C50.8202 6.24752 57.0574 0.0073618 64.6692 -1.21836e-06Z" fill="#EF4623"/>
<path d="M115.07 50.525C122.756 50.5176 129.044 56.8204 128.996 64.4779C128.949 72.1097 122.715 78.3498 115.118 78.3719C107.458 78.394 101.207 72.1023 101.225 64.3896C101.243 56.7283 107.433 50.5324 115.067 50.525H115.07Z" fill="#EF4623"/>
<path d="M64.5404 129C56.9543 128.982 50.7869 122.767 50.8273 115.183C50.8678 107.655 57.0094 101.532 64.5514 101.507C72.1228 101.481 78.3452 107.684 78.3452 115.264C78.3452 122.841 72.1338 129.022 64.5404 129Z" fill="#EF4623"/>
<path d="M77.9777 82.1528C70.8878 88.2384 58.4024 88.2384 51.1838 82.1528C52.5915 76.6674 58.4502 72.4042 64.5771 72.4005C70.7114 72.4005 76.5479 76.6453 77.9777 82.1491V82.1528Z" fill="#EF4623"/>
<path d="M18.8403 101.278C18.8403 96.2935 22.8907 92.2365 27.8672 92.2254C32.9099 92.2144 37.0153 96.3377 36.9638 101.356C36.9124 106.337 32.8033 110.397 27.8561 110.364C22.876 110.331 18.8367 106.256 18.8403 101.275V101.278Z" fill="#EF4623"/>
<path d="M64.5295 69.0724C60.5012 69.054 57.344 65.8143 57.3882 61.7389C57.4286 57.7665 60.6336 54.6299 64.6324 54.6446C68.6533 54.663 71.8289 57.9175 71.7848 61.9782C71.7407 65.9358 68.5173 69.0908 64.5332 69.0724H64.5295Z" fill="#EF4623"/>
<path d="M102.037 19.8102C102.059 15.8158 105.271 12.657 109.267 12.6938C113.17 12.7307 116.342 15.9336 116.353 19.8507C116.364 23.8009 113.111 27.0554 109.156 27.048C105.187 27.0407 102.015 23.812 102.037 19.8102Z" fill="#EF4623"/>
<path d="M39.5732 33.1998C39.5953 36.7746 36.8019 39.613 33.2478 39.6241C29.7378 39.6351 26.8415 36.7378 26.8526 33.2293C26.8636 29.7834 29.69 26.9265 33.1486 26.8603C36.6512 26.794 39.5475 29.6545 39.5732 33.1998Z" fill="#EF4623"/>
<path d="M83.5607 47.5209C82.9984 46.8766 82.3368 46.1219 81.7598 45.4593C88.0558 39.186 94.4473 32.817 100.942 26.3412C101.394 26.8824 102.063 27.6776 102.647 28.3771C96.4063 34.6356 90.0258 41.0341 83.557 47.5209H83.5607Z" fill="#EF4623"/>
<path d="M96.3108 92.0119C96.2925 94.4417 94.3371 96.3818 91.9261 96.3598C89.526 96.3377 87.5633 94.3386 87.5854 91.942C87.6074 89.5453 89.6179 87.5646 91.9996 87.5867C94.4106 87.6088 96.3292 89.5784 96.3108 92.0156V92.0119Z" fill="#EF4623"/>
<path d="M37.743 93.525C37.0116 92.8255 36.2949 92.1371 35.6406 91.5112C38.9338 88.2016 42.2233 84.8956 45.4246 81.6779C46.1156 82.3516 46.8617 83.0806 47.5343 83.7359C44.2668 87.0051 40.992 90.2779 37.7466 93.525H37.743Z" fill="#EF4623"/>
<path d="M39.0293 40.9825C39.6578 40.3604 40.3672 39.6609 40.9993 39.035C43.1384 41.2034 45.2518 43.3461 47.3652 45.4887C46.7991 46.0299 46.053 46.7404 45.3878 47.3773C43.392 45.3709 41.2676 43.2319 39.033 40.9825H39.0293Z" fill="#EF4623"/>
<path d="M66.1759 90.0938V98.1932H63.0408V90.0938H66.1759Z" fill="#EF4623"/>
<path d="M39.0697 66.142H31.2925V62.9869H39.0697V66.142Z" fill="#EF4623"/>
<path d="M90.0369 66.1125V63.0237H97.8839V66.1125H90.0369Z" fill="#EF4623"/>
<path d="M63.0371 31.1603H66.1502V38.9577H63.0371V31.1603Z" fill="#EF4623"/>
<path d="M87.5781 85.7055C87.001 86.2872 86.2953 87.0014 85.6485 87.6493C84.3216 86.2798 83.0316 84.9508 81.6643 83.5481C82.2377 83.0732 83.0389 82.4068 83.8622 81.7258C84.9538 82.8965 86.2218 84.2513 87.5781 85.7055Z" fill="#EF4623"/>
</g>
<defs>
<clipPath id="clip0_650_815">
<rect width="129" height="129" fill="white"/>
</clipPath>
</defs>
</svg>
