<svg width="124" height="128" viewBox="0 0 124 128" fill="none" xmlns="http://www.w3.org/2000/svg">
<g clip-path="url(#clip0_650_836)">
<path d="M33.1017 93.6831C33.1881 96.7607 34.4464 99.1072 37.2048 100.04C41.8714 101.621 45.259 104.434 47.6165 108.81C49.1479 111.654 52.2485 112.807 55.2248 111.63C59.8153 109.816 64.195 109.813 68.7821 111.63C71.665 112.776 74.5929 111.609 76.2798 109.04C80.6594 102.38 79.5395 103.261 86.9334 100.03C89.6712 98.8322 91.0573 96.3116 90.8464 93.2966C90.798 92.6038 90.7427 91.904 90.6045 91.2252C89.9131 87.8063 90.2519 84.5755 92.1738 81.5849C92.5921 80.9304 92.9067 80.2063 93.2385 79.4995C94.5486 76.683 94.0716 73.7447 91.8351 71.5966C86.1799 66.1724 86.809 67.4501 85.0046 59.683C84.3201 56.7376 82.1769 54.882 79.1938 54.5165C78.1257 54.3842 77.0402 54.325 75.9617 54.325C73.1825 54.325 70.6937 53.5765 68.5678 51.6965C67.7589 50.9828 66.8636 50.3596 65.9821 49.7329C63.4415 47.9225 60.5516 47.9191 58.0144 49.7329C56.7112 50.6659 55.5186 51.7835 54.1359 52.5599C52.888 53.2596 51.4846 53.8062 50.0881 54.0743C48.3597 54.4051 46.5588 54.3145 44.8027 54.5165C41.8265 54.8576 39.6799 56.7446 38.9954 59.683C37.1737 67.4884 37.827 66.1585 32.1649 71.5966C29.9319 73.7412 29.4445 76.69 30.7684 79.4961C31.3802 80.7912 32.0232 82.0723 32.6903 83.3396C33.6859 85.2196 33.9348 87.1901 33.6098 89.2825C33.3748 90.7865 33.2572 92.3044 33.1017 93.6831ZM45.8501 16.3003C45.8501 25.272 53.092 32.5971 61.9758 32.611C70.8631 32.6284 78.1187 25.3382 78.1568 16.3525C78.1982 7.31806 70.9356 -0.013929 61.9654 -3.0835e-06C53.0643 0.0139228 45.8501 7.3111 45.8501 16.3003ZM39.1855 52.3231C38.7776 52.0864 38.5322 51.9193 38.266 51.7939C22.4757 44.274 3.09723 54.3528 0.0829546 71.6523C-0.203954 73.2886 0.231594 73.8456 1.877 73.8526C5.07448 73.87 8.2685 73.8561 11.466 73.8561C16.3434 73.8561 21.2243 73.8561 26.2332 73.8561C26.8657 71.0778 28.5353 68.9681 30.6785 67.2935C32.9669 65.511 34.1802 63.2759 34.5881 60.4071C35.0409 57.2216 36.3441 54.4085 39.189 52.3231H39.1855ZM84.8041 52.2953C87.369 54.2588 88.6998 56.7168 89.2633 59.6482C89.4603 60.6717 89.8094 61.6674 89.965 62.6944C90.162 63.9721 90.7911 64.9121 91.7279 65.7686C94.2513 68.0698 96.9752 70.2353 97.7876 73.8595H99.0596C106.62 73.8595 114.176 73.8595 121.736 73.8595C123.893 73.8595 124.28 73.3791 123.831 71.2763C120.879 57.4583 108.694 48.2916 94.7042 49.4161C91.2854 49.6911 88.0223 50.5998 84.8006 52.2953H84.8041ZM13.1045 32.799C13.1045 40.4234 19.3024 46.6796 26.8796 46.704C34.4187 46.7284 40.665 40.4722 40.71 32.8512C40.7549 25.2024 34.4498 18.8383 26.8657 18.88C19.2817 18.9218 13.1045 25.1711 13.1045 32.799ZM110.899 32.6249C110.712 24.896 104.469 18.7408 96.9718 18.8835C89.2805 19.0332 83.1552 25.3695 83.3038 33.0218C83.4525 40.6567 89.8094 46.8642 97.3036 46.6971C104.933 46.5265 111.082 40.1588 110.899 32.6214V32.6249ZM37.5782 46.8015C39.6107 47.8808 41.6606 48.9809 43.7277 50.0462C44.0526 50.2134 44.4536 50.276 44.8235 50.3039C48.7953 50.5963 52.3246 49.5971 55.1799 46.6553C55.2386 46.5926 55.3147 46.5474 55.3873 46.4986C59.5699 43.4384 64.5753 43.2539 68.5678 46.5508C71.703 49.1376 74.98 50.6799 79.0486 50.2934C79.4254 50.2586 79.8437 50.2795 80.1617 50.1159C82.2668 49.0331 84.3547 47.9051 86.4253 46.805C74.3993 31.3611 49.7182 31.3159 37.5782 46.805V46.8015ZM83.3833 105.84C82.0629 107.853 80.9706 109.559 79.8367 111.24C77.9943 113.97 75.464 115.63 72.1904 116.059C71.3228 116.173 70.4448 116.198 69.4354 116.274C71.1845 120.062 72.8541 123.725 74.5687 127.363C75.0803 128.449 75.5919 127.965 76.0136 127.234C77.3133 124.982 78.6373 122.743 79.899 120.47C80.2516 119.832 80.5938 119.662 81.33 119.812C83.7394 120.299 86.1626 120.703 88.5892 121.089C89.0559 121.162 89.5571 121.016 90.041 120.971C89.9511 120.525 89.9442 120.045 89.761 119.644C88.4025 116.643 87.0095 113.656 85.6268 110.669C84.9389 109.183 84.2475 107.7 83.3868 105.844L83.3833 105.84ZM40.6339 106.011C40.385 106.45 40.2433 106.659 40.1361 106.888C38.1485 111.177 36.1609 115.467 34.194 119.77C34.0281 120.132 34.0419 120.574 33.9693 120.978C34.4152 121.03 34.875 121.187 35.3002 121.117C37.7717 120.72 40.2398 120.309 42.6907 119.808C43.4339 119.655 43.7657 119.857 44.1148 120.48C45.2936 122.604 46.5104 124.707 47.7582 126.792C48.0244 127.238 48.4738 127.575 48.8402 127.962C49.1375 127.561 49.5143 127.199 49.7251 126.757C51.2046 123.617 52.6495 120.463 54.0979 117.308C54.2534 116.974 54.3675 116.619 54.5576 116.118C50.3266 116.619 47.136 115.038 44.7163 111.818C43.6758 110.432 42.746 108.967 41.7574 107.539C41.4428 107.083 41.1006 106.645 40.6339 106.008V106.011Z" fill="white"/>
<path d="M33.1016 93.6831C33.2572 92.3079 33.3747 90.7865 33.6097 89.2825C33.9347 87.1901 33.6858 85.2196 32.6902 83.3396C32.0196 82.0758 31.3767 80.7946 30.7683 79.4961C29.4444 76.69 29.9318 73.7412 32.1648 71.5966C37.827 66.1585 37.1771 67.4919 38.9953 59.683C39.6798 56.7446 41.8264 54.8611 44.8026 54.5165C46.5587 54.3145 48.3631 54.4051 50.088 54.0743C51.488 53.8062 52.8914 53.2631 54.1358 52.5599C55.5185 51.78 56.7111 50.6625 58.0143 49.7329C60.5515 47.9156 63.4414 47.9191 65.9821 49.7329C66.8635 50.3596 67.7588 50.9828 68.5677 51.6965C70.6936 53.5765 73.1824 54.325 75.9617 54.325C77.0402 54.325 78.1221 54.3876 79.1937 54.5165C82.1734 54.882 84.32 56.7376 85.0045 59.683C86.8089 67.4501 86.1832 66.1724 91.835 71.5966C94.0715 73.7447 94.5485 76.683 93.2384 79.4995C92.91 80.2063 92.5955 80.9339 92.1737 81.5849C90.2518 84.5755 89.913 87.8063 90.6044 91.2252C90.7426 91.904 90.7945 92.6038 90.8464 93.2966C91.0607 96.3116 89.6711 98.8322 86.9333 100.03C79.5394 103.264 80.6559 102.38 76.2797 109.04C74.5928 111.609 71.6649 112.772 68.782 111.63C64.1949 109.809 59.8152 109.816 55.2247 111.63C52.2485 112.803 49.1478 111.651 47.6164 108.81C45.2589 104.434 41.8713 101.621 37.2047 100.04C34.4497 99.1072 33.188 96.7607 33.1016 93.6831ZM61.9826 98.0175C71.8032 98.0314 79.6811 90.1111 79.6949 80.2167C79.7088 70.3189 71.8516 62.3881 62.0241 62.3811C52.1862 62.3741 44.3256 70.2736 44.3152 80.1749C44.3049 90.0728 52.162 98.0071 61.9826 98.0175Z" fill="#EF4623"/>
<path d="M45.8501 16.3003C45.8501 7.3111 53.0643 0.0139266 61.9654 7.3119e-07C70.9356 -0.0139252 78.1948 7.31807 78.1567 16.356C78.1187 25.3417 70.863 32.6284 61.9758 32.6145C53.0885 32.5971 45.8501 25.2755 45.8501 16.3038V16.3003Z" fill="#EF4623"/>
<path d="M39.1855 52.3231C36.3441 54.4085 35.0409 57.225 34.5846 60.4071C34.1767 63.2759 32.9634 65.511 30.675 67.2935C28.5284 68.9681 26.8588 71.0778 26.2297 73.8561C21.2209 73.8561 16.3434 73.8561 11.4625 73.8561C8.26503 73.8561 5.071 73.8665 1.87352 73.8526C0.228117 73.8456 -0.203975 73.2886 0.0794777 71.6523C3.09721 54.3528 22.4722 44.274 38.266 51.7939C38.5322 51.9193 38.7776 52.0864 39.1855 52.3231Z" fill="#EF4623"/>
<path d="M84.8042 52.2953C88.0259 50.5998 91.289 49.6911 94.7077 49.4161C108.694 48.2916 120.882 57.4548 123.834 71.2763C124.284 73.3791 123.9 73.8595 121.739 73.8595C114.18 73.8595 106.623 73.8595 99.0632 73.8595H97.7912C96.9788 70.2353 94.2515 68.0699 91.7315 65.7686C90.7947 64.9122 90.1621 63.9722 89.9686 62.6945C89.8095 61.6674 89.4639 60.6717 89.2668 59.6482C88.7034 56.7202 87.3726 54.2588 84.8077 52.2953H84.8042Z" fill="#EF4623"/>
<path d="M13.1045 32.799C13.1045 25.1711 19.2817 18.9184 26.8658 18.8801C34.4498 18.8383 40.7549 25.2024 40.71 32.8512C40.665 40.4722 34.4187 46.7319 26.8796 46.704C19.3059 46.6797 13.1079 40.4234 13.1045 32.799Z" fill="#EF4623"/>
<path d="M110.899 32.6249C111.082 40.1588 104.929 46.5265 97.3037 46.7005C89.8095 46.8676 83.4526 40.6602 83.3039 33.0253C83.1553 25.373 89.2806 19.0332 96.9718 18.887C104.473 18.7408 110.712 24.8995 110.899 32.6284V32.6249Z" fill="#EF4623"/>
<path d="M37.5781 46.8015C49.7182 31.3124 74.3993 31.3611 86.4252 46.8015C84.3547 47.9016 82.2702 49.0296 80.1616 50.1124C79.8436 50.276 79.4254 50.2551 79.0486 50.2899C74.98 50.6764 71.703 49.1341 68.5678 46.5474C64.5752 43.2504 59.5699 43.4349 55.3872 46.4951C55.3181 46.5474 55.242 46.5926 55.1798 46.6518C52.3246 49.5902 48.7952 50.5893 44.8234 50.3004C44.4536 50.2725 44.0526 50.2134 43.7277 50.0428C41.6605 48.9774 39.6107 47.8773 37.5781 46.798V46.8015Z" fill="#EF4623"/>
<path d="M83.3833 105.84C84.244 107.696 84.9353 109.179 85.6232 110.666C87.0059 113.656 88.399 116.64 89.7575 119.641C89.9407 120.041 89.9476 120.525 90.0375 120.967C89.5535 121.013 89.0523 121.162 88.5856 121.086C86.159 120.699 83.7359 120.295 81.3265 119.808C80.5937 119.658 80.2515 119.832 79.8954 120.466C78.6337 122.739 77.3098 124.982 76.0101 127.231C75.5883 127.962 75.0802 128.446 74.5651 127.359C72.8506 123.721 71.181 120.059 69.4319 116.271C70.4413 116.194 71.3193 116.17 72.1869 116.055C75.4604 115.627 77.9908 113.966 79.8332 111.237C80.967 109.559 82.0593 107.853 83.3798 105.837L83.3833 105.84Z" fill="#EF4623"/>
<path d="M40.6338 106.011C41.1039 106.648 41.4427 107.087 41.7573 107.543C42.7459 108.967 43.6758 110.436 44.7162 111.822C47.1359 115.042 50.3265 116.623 54.5576 116.121C54.364 116.623 54.2499 116.978 54.0978 117.312C52.6494 120.466 51.2011 123.62 49.725 126.761C49.5176 127.203 49.1408 127.568 48.8401 127.965C48.4737 127.579 48.0243 127.245 47.7582 126.795C46.5103 124.71 45.2935 122.607 44.1148 120.483C43.7691 119.86 43.4372 119.658 42.6906 119.812C40.2398 120.309 37.7682 120.72 35.3001 121.121C34.8749 121.19 34.4152 121.034 33.9692 120.981C34.0384 120.577 34.028 120.135 34.1939 119.773C36.1574 115.474 38.1484 111.184 40.1361 106.892C40.2432 106.662 40.3849 106.453 40.6338 106.014V106.011Z" fill="#EF4623"/>
<path d="M55.0105 88.7672C55.4254 87.4721 55.8056 85.9925 56.369 84.5895C56.9048 83.2491 56.5765 82.3717 55.3942 81.6337C54.4056 81.0175 53.493 80.2759 52.5494 79.59C51.9029 79.1201 51.2565 78.6431 51.5849 77.6822C51.8891 76.7909 52.6289 76.777 53.3893 76.784C54.5992 76.7979 55.816 76.7039 57.0155 76.8083C58.4604 76.9337 59.1552 76.307 59.4801 74.9388C59.7566 73.7586 60.1127 72.5784 60.6208 71.4852C60.887 70.9107 61.568 70.1344 62.0312 70.1552C62.5255 70.1761 63.1684 70.949 63.4208 71.5339C63.967 72.8047 64.3161 74.1589 64.7171 75.4889C64.9971 76.4115 65.5709 76.8223 66.5353 76.7979C67.9145 76.7631 69.2972 76.8014 70.6799 76.784C71.4542 76.7735 72.3392 76.8292 72.3841 77.7344C72.4118 78.3228 71.9658 79.0852 71.4992 79.5135C70.5797 80.356 69.5288 81.0697 68.4745 81.7451C67.4306 82.4135 67.1299 83.2143 67.5827 84.391C68.0182 85.5225 68.3432 86.6992 68.7234 87.8516C68.9861 88.6489 69.3076 89.4566 68.4261 90.0867C67.5308 90.7238 66.8948 90.0763 66.2346 89.5958C65.3254 88.9343 64.3783 88.3146 63.5245 87.5835C62.5048 86.7132 61.606 86.6505 60.5448 87.5417C59.4525 88.4574 58.2841 89.2929 57.088 90.0693C56.0925 90.7168 54.9829 90.0658 55.0071 88.7672H55.0105Z" fill="#EF4623"/>
</g>
<defs>
<clipPath id="clip0_650_836">
<rect width="124" height="128" fill="white"/>
</clipPath>
</defs>
</svg>
