<svg width="82" height="117" viewBox="0 0 82 117" fill="none" xmlns="http://www.w3.org/2000/svg">
<g clip-path="url(#clip0_650_812)">
<path d="M4.81104 117C4.40654 116.808 3.98769 116.64 3.59752 116.422C1.32827 115.158 0 113.321 0 110.638C0.00573768 91.4917 0 72.3455 0.00860651 53.1992C0.00860651 49.3746 2.47581 46.9459 6.32866 46.9087C8.07578 46.8915 9.8229 46.9087 11.7049 46.9087C11.7049 46.3652 11.702 45.9189 11.7049 45.4755C11.7536 39.6913 11.5758 33.8957 11.8971 28.1258C12.5655 16.0253 20.8536 5.27787 32.3777 1.49611C40.7232 -1.24438 48.7817 -0.17736 56.2178 4.41968C64.1759 9.33711 68.7288 16.5974 70.0369 25.8373C70.2435 27.2933 70.3238 28.8123 70.1488 30.2655C69.7874 33.2721 67.1337 35.366 64.1444 35.2259C61.2009 35.0886 58.7739 32.7972 58.6448 29.8193C58.4526 25.351 57.3022 21.2545 54.2469 17.8675C49.6653 12.7928 43.8617 10.673 37.2203 12.0347C30.5847 13.3964 26.4077 17.8847 24.3593 24.241C23.7741 26.0604 23.5073 28.0428 23.4642 29.9594C23.3466 35.3632 23.4212 40.7698 23.4212 46.1735C23.4212 46.3595 23.447 46.5425 23.4728 46.9058H24.9359C41.6555 46.9058 58.3751 46.9058 75.0947 46.9116C75.7804 46.9116 76.4718 46.9316 77.1488 47.0288C79.9115 47.4293 81.6529 49.2573 81.9484 52.0378C82.0086 52.6042 82 53.1792 82 53.7485C82 72.3998 82 91.0512 82 109.703C82 113.965 81.0562 115.395 77.1918 117H4.81104ZM35.2408 90.2073C35.2408 91.6519 35.1404 93.1051 35.2609 94.5383C35.5105 97.5191 37.7998 99.4357 40.967 99.4471C44.1887 99.4614 46.5268 97.5362 46.7391 94.4897C46.9026 92.1411 46.8797 89.7753 46.8453 87.4182C46.8309 86.4484 47.1092 85.8677 47.9383 85.2813C51.1055 83.0357 52.9329 79.9891 52.9301 76.0271C52.9272 72.4427 51.094 69.748 48.4948 67.4996C43.8358 63.4661 36.7183 63.8208 32.4322 68.2662C28.1978 72.6573 28.0974 79.5142 32.6761 83.8309C34.7158 85.7533 35.6195 87.5755 35.2408 90.2073Z" fill="#EF4623"/>
</g>
<defs>
<clipPath id="clip0_650_812">
<rect width="82" height="117" fill="white"/>
</clipPath>
</defs>
</svg>
