<svg width="93" height="93" viewBox="0 0 93 93" fill="none" xmlns="http://www.w3.org/2000/svg">
<g clip-path="url(#clip0_613_301)">
<path d="M69.9276 92.9999H68.1118C67.2196 92.1901 67.0735 91.2652 67.5118 90.1366C67.9396 89.0394 68.2214 87.8899 68.5866 86.7665C69.8232 82.9575 70.9867 79.1275 71.0389 75.0781C71.1015 70.1666 71.0963 65.2603 71.1172 60.3488C71.1172 60.1085 71.0859 59.8629 71.0285 59.6278C70.7676 58.5567 69.7136 57.9453 68.6492 58.2432C67.7205 58.4992 67.2248 59.2307 67.2196 60.3959C67.2144 63.4577 67.2196 66.5196 67.2196 69.5814C67.2196 70.8981 66.4995 71.7237 65.3986 71.7237C64.2924 71.7237 63.5724 70.8981 63.5672 69.5867C63.562 66.8905 63.5672 64.1892 63.5672 61.4931C63.5672 60.098 63.5933 58.703 63.5515 57.3131C63.5202 56.195 62.7063 55.3955 61.668 55.3642C60.6349 55.3328 59.8105 56.0904 59.6852 57.2086C59.6487 57.5064 59.6591 57.8147 59.6591 58.1178C59.6591 61.7857 59.6591 65.4537 59.6591 69.1216C59.6591 69.4822 59.6644 69.8531 59.6122 70.2084C59.4922 71.0288 58.8348 71.6296 58.026 71.7185C57.1964 71.8073 56.3668 71.3005 56.132 70.4854C56.0172 70.0883 55.9963 69.6494 55.9963 69.2314C55.9859 65.3805 55.9859 61.5297 55.9963 57.6841C55.9963 56.916 55.8659 56.2315 55.2033 55.756C54.5876 55.3119 53.9197 55.2231 53.231 55.5679C52.4483 55.9598 52.1196 56.6182 52.1196 57.4908C52.13 61.3991 52.1248 65.3126 52.1196 69.2209C52.1196 69.6128 52.1092 70.0151 52.01 70.3913C51.7804 71.2743 50.9665 71.8125 50.0951 71.7237C49.2186 71.6349 48.5507 70.9608 48.4724 70.0465C48.4411 69.7173 48.4516 69.3777 48.4516 69.0485C48.4516 60.1085 48.4516 51.1633 48.4516 42.2233C48.4516 41.8 48.4359 41.3716 48.3368 40.964C48.1281 40.1071 47.4237 39.569 46.568 39.5376C45.6758 39.5063 44.9088 40.0288 44.6635 40.9118C44.554 41.3141 44.5383 41.7478 44.5383 42.1658C44.5331 51.3514 44.5383 60.5369 44.5279 69.7225C44.5279 70.9974 43.8235 71.7603 42.7121 71.7603C41.6164 71.7603 40.8964 70.9765 40.8703 69.733C40.8598 69.1791 40.8703 68.6253 40.8703 68.0714C40.0511 68.9597 39.4458 69.8949 38.7936 70.7989C37.2492 72.9463 37.1031 75.1617 38.251 77.5548C40.2546 81.7296 42.1903 85.9357 44.1522 90.1314C44.7679 91.4481 44.6479 92.0542 43.5991 93.0156H41.7834C41.4494 92.5192 41.0477 92.0594 40.792 91.5265C38.7989 87.3151 36.8318 83.0933 34.8543 78.8715C33.2368 75.423 33.5133 72.1208 35.6317 68.9701C37.1553 66.7077 38.6371 64.4191 40.2441 62.2246C40.9955 61.2005 40.8964 60.1712 40.8024 59.0165H39.665C31.1289 59.0165 22.5927 59.0165 14.0566 59.0165C12.1887 59.0165 11.6147 58.4417 11.6147 56.5764C11.6147 40.9954 11.6147 25.4144 11.6147 9.83864C11.6147 7.90539 12.173 7.33586 14.0879 7.33586C36.3048 7.33586 58.5217 7.33586 80.7386 7.33586C82.6483 7.33586 83.2066 7.90539 83.2066 9.84387C83.2066 25.3935 83.2066 40.9431 83.2066 56.4928C83.2066 56.6757 83.2066 56.8585 83.2066 57.0362C83.17 58.285 82.4656 59.0008 81.2134 59.0112C79.3977 59.0269 77.5819 59.0112 75.7662 59.0112C75.4218 59.0112 75.0722 59.0112 74.8426 59.0112V62.6008C78.4428 62.6008 81.923 62.606 85.398 62.6008C87.8607 62.5956 89.353 61.1012 89.3582 58.6298C89.3582 41.6537 89.3582 24.6829 89.3582 7.70684C89.3582 5.18838 87.8712 3.72015 85.3302 3.72015C59.4504 3.72015 33.5707 3.72015 7.69102 3.72015C5.10827 3.72015 3.64731 5.18316 3.64731 7.77999C3.64731 24.6934 3.64731 41.6067 3.64731 58.5201C3.64731 61.1744 5.09261 62.6269 7.73798 62.6269C13.4305 62.6269 19.1177 62.6269 24.8102 62.6269C26.1094 62.6269 26.9025 63.2905 26.9286 64.3616C26.9547 65.5164 26.1773 66.2688 24.8833 66.2688C18.9821 66.274 13.0809 66.2792 7.17447 66.2688C5.55177 66.2688 4.10125 65.7149 2.80727 64.7274C1.25762 63.5465 0.485398 61.9111 0.00537109 60.0928V6.23338C1.11674 1.6406 4.48214 -0.0314066 8.88587 -5.6479e-05C26.819 0.120119 44.7574 0.0521936 62.6958 0.0521936C70.3189 0.0521936 77.9419 0.0417436 85.565 0.0521936C89.2017 0.0574187 91.9984 2.29895 92.8332 5.82583C92.8645 5.96691 92.9428 6.09753 93.0002 6.23338V60.0771C92.9532 60.1503 92.8854 60.2234 92.8645 60.3018C91.8679 64.1735 89.2382 66.2322 85.2675 66.2374C82.1213 66.2374 78.975 66.2374 75.8288 66.2374C75.5053 66.2374 75.187 66.2374 74.78 66.2374C74.78 67.0734 74.8009 67.7945 74.78 68.5155C74.6548 71.9327 74.6756 75.3655 74.3417 78.7618C73.8982 83.3075 72.1033 87.5346 70.7885 91.8713C70.658 92.2946 70.225 92.629 69.9328 92.9999H69.9276ZM79.5124 11.0299H15.3036V55.2962H40.8129C40.8442 55.1604 40.8755 55.0768 40.8755 54.9932C40.8755 50.5676 40.8911 46.142 40.8598 41.7164C40.8598 41.4395 40.6042 41.0685 40.3589 40.8961C38.9241 39.8877 38.3762 38.524 38.8458 36.8729C39.0597 36.1152 39.3467 35.3785 39.5502 34.6209C39.6076 34.4067 39.5711 34.0566 39.4354 33.9103C38.2666 32.6563 37.8284 32.6354 36.4457 33.6699C36.4196 33.6856 36.3987 33.7117 36.3726 33.7222C35.8874 33.9521 35.8769 34.3074 36.0491 34.7672C36.31 35.4778 36.5396 36.1988 36.7379 36.9251C37.1501 38.4142 36.6544 39.8354 35.4491 40.708C34.2542 41.5754 32.7307 41.6067 31.4524 40.755C30.821 40.337 30.2001 39.8981 29.6209 39.4174C29.214 39.083 28.9061 39.1144 28.5096 39.4227C27.8678 39.9295 27.2104 40.4154 26.5164 40.8491C25.2955 41.6119 23.8137 41.5336 22.6762 40.7028C21.4918 39.8354 20.9805 38.4404 21.3666 37.0087C21.5648 36.2772 21.7736 35.5457 22.0553 34.8456C22.2744 34.3022 22.2118 33.9625 21.6901 33.649C21.1213 33.3042 20.5996 32.8862 20.0674 32.4838C18.716 31.4545 18.236 30.0699 18.7003 28.5703C19.1699 27.0551 20.4117 26.1511 22.1284 26.0989C22.8536 26.078 23.5841 26.1459 24.3041 26.0675C24.5754 26.0362 24.9355 25.7697 25.045 25.5189C25.3477 24.8292 25.5198 24.082 25.7807 23.3766C26.3338 21.8718 27.5756 20.9836 29.0835 20.9888C30.5967 20.994 31.8072 21.8771 32.3654 23.4028C32.6263 24.1134 32.8246 24.8449 33.0855 25.5555C33.1585 25.754 33.3412 26.0466 33.4977 26.0623C34.9586 26.2191 36.43 26.4124 37.8962 26.4228C39.1797 26.4281 40.4737 26.24 41.7521 26.0728C42.0234 26.0362 42.3782 25.7697 42.4878 25.5189C42.7904 24.8292 42.9626 24.082 43.2234 23.3766C43.7765 21.8718 45.0183 20.9836 46.5262 20.994C48.0341 21.0045 49.2499 21.8875 49.8082 23.408C50.0273 24.0037 50.2464 24.6045 50.3925 25.2211C50.5491 25.8794 50.8517 26.1511 51.5717 26.1198C52.5318 26.078 53.5023 26.1825 54.4623 26.2452C54.7858 26.2661 55.1093 26.4333 55.4224 26.4124C56.6225 26.334 57.8121 26.1564 59.0122 26.1146C59.5965 26.0937 59.8835 25.9369 60.014 25.3517C60.1496 24.7352 60.3844 24.1395 60.5983 23.5386C61.1723 21.9032 62.4037 20.9784 63.969 20.9888C65.5343 20.9993 66.7448 21.9293 67.3135 23.5752C67.5013 24.1186 67.7048 24.662 67.83 25.2211C67.9761 25.8847 68.2892 26.1773 69.0092 26.1146C69.7293 26.0466 70.465 26.0675 71.185 26.125C72.7555 26.2504 73.8826 27.17 74.3156 28.6069C74.7487 30.0542 74.3 31.4284 73.0582 32.4002C72.3225 32.975 71.1589 33.4034 70.9346 34.1297C70.6998 34.903 71.352 35.9428 71.6077 36.8729C72.0251 38.3881 71.5711 39.7832 70.3763 40.6767C69.1606 41.5858 67.6213 41.6276 66.3065 40.7498C65.6804 40.3318 65.1064 39.8145 64.4542 39.4383C64.1933 39.292 63.7133 39.2764 63.4576 39.4279C62.7271 39.8511 62.0906 40.4311 61.3706 40.8752C60.1444 41.6328 58.6626 41.5388 57.5355 40.6923C56.3511 39.8093 55.8607 38.4299 56.2572 36.9878C56.4711 36.1988 56.7738 35.436 56.9877 34.647C57.0451 34.4275 57.0294 34.0775 56.8938 33.9259C55.7981 32.6928 55.245 32.6563 53.904 33.6542C53.878 33.6699 53.8571 33.696 53.831 33.7065C53.3614 33.9312 53.2988 34.2656 53.4762 34.7463C53.7632 35.5091 54.0188 36.2877 54.2223 37.0819C54.5406 38.3254 54.3371 39.6317 53.2884 40.2848C52.0205 41.079 52.0518 42.1083 52.1039 43.2839C52.13 43.8587 52.1039 44.4334 52.1039 45.0134V52.0097C54.2797 51.367 56.179 51.7694 57.8382 53.1435C59.3357 51.9366 60.9531 51.4402 62.8054 51.8425C64.6473 52.2396 65.8891 53.4048 66.7761 55.0193C68.5553 54.2774 70.2458 54.3139 71.8998 55.2074C72.0303 55.2753 72.1816 55.3381 72.3277 55.3381C74.7122 55.3485 77.0914 55.3433 79.5177 55.3433V11.0299H79.5124ZM25.212 37.0348C25.2642 37.0714 25.3216 37.1132 25.3738 37.1498C26.146 36.5959 26.9182 36.0369 27.6904 35.483C28.7392 34.7306 29.3653 34.7254 30.4088 35.4673C31.1915 36.0212 31.9637 36.5907 32.762 37.1655C32.809 37.0296 32.8507 36.9669 32.8403 36.9199C32.595 36.11 32.3498 35.3054 32.0941 34.5007C31.6245 33.0168 31.7915 32.4943 33.0646 31.5642C33.7951 31.0313 34.5256 30.4983 35.256 29.9654C34.1655 29.7773 33.1742 29.7877 32.1828 29.7721C30.9671 29.7564 30.4662 29.375 30.0644 28.1993C29.7514 27.2745 29.4435 26.3497 29.0522 25.1741C28.6661 26.3549 28.3687 27.2641 28.0661 28.168C27.6539 29.3959 27.1582 29.7616 25.8746 29.7721C24.8885 29.7825 23.9076 29.7721 22.9214 29.7721C23.6624 30.5454 24.4607 31.1201 25.2485 31.7053C26.2608 32.4577 26.4642 33.0899 26.0834 34.3021C25.7964 35.2113 25.499 36.1205 25.2068 37.0296L25.212 37.0348ZM50.1682 37.1393C50.2256 37.0923 50.2778 37.0453 50.3351 36.9983C50.0534 36.1152 49.7664 35.2322 49.4847 34.3439C49.0829 33.069 49.276 32.4682 50.3404 31.6844C51.123 31.1044 51.9057 30.5349 52.6883 29.9602C51.6187 29.7773 50.6326 29.7877 49.6412 29.7721C48.4046 29.7564 47.9037 29.3906 47.5072 28.2202C47.1941 27.2902 46.8863 26.3601 46.4949 25.1741C46.1558 26.1982 45.8949 26.9558 45.6445 27.7186C45.0444 29.5631 44.747 29.7773 42.7904 29.7773C41.9764 29.7773 41.1677 29.7773 40.3537 29.7773C40.9433 30.4356 41.5486 30.8798 42.159 31.3187C43.8757 32.557 43.9852 32.8914 43.333 34.8873C43.0982 35.6032 42.8843 36.3242 42.6652 37.0453C43.5991 36.5855 44.3505 36.0369 45.1122 35.4935C46.1923 34.7149 46.8028 34.7149 47.9089 35.5039C48.6655 36.0473 49.4168 36.5959 50.1734 37.1393H50.1682ZM60.0922 37.0453C60.1444 37.0819 60.2018 37.1184 60.254 37.1498C61.0314 36.5907 61.8036 36.0212 62.5811 35.4673C63.6194 34.7254 64.2507 34.7254 65.2995 35.4673C66.0769 36.0212 66.8491 36.5803 67.6213 37.1393C67.4909 36.1205 67.1935 35.2113 66.9117 34.3021C66.5308 33.0847 66.7291 32.4577 67.7413 31.7053C68.5344 31.1201 69.338 30.5454 70.1571 29.9445C70.0319 29.8504 69.9902 29.7877 69.9432 29.7877C69.1292 29.7773 68.3101 29.7668 67.4961 29.7668C65.7221 29.7616 65.3569 29.4951 64.8194 27.8284C64.5586 27.0185 64.282 26.2138 63.9272 25.1636C63.5359 26.3445 63.2437 27.2588 62.9359 28.168C62.5237 29.3854 62.028 29.7459 60.734 29.7616C59.7531 29.7721 58.7721 29.7616 57.7912 29.7616C58.3495 30.3938 58.9495 30.838 59.5548 31.2769C61.334 32.5622 61.4279 32.8496 60.7601 34.9082C60.5305 35.6136 60.3166 36.3242 60.0922 37.0348V37.0453Z" fill="#EF4623"/>
<path d="M34.1862 64.4818C34.2227 63.4839 33.487 62.6688 32.4905 62.6165C31.4939 62.5643 30.5808 63.395 30.5651 64.3721C30.5495 65.3387 31.3321 66.1904 32.2922 66.2479C33.3044 66.3106 34.1445 65.5268 34.1862 64.4818ZM7.63342 34.9814C8.64043 34.9762 9.46482 34.1297 9.44917 33.1213C9.43352 32.1442 8.64043 31.3448 7.66472 31.3291C6.64727 31.3082 5.81766 32.1233 5.80723 33.1422C5.79679 34.1611 6.62119 34.9919 7.63342 34.9866V34.9814Z" fill="white"/>
<path d="M43.5937 93C44.6425 92.0386 44.7625 91.4377 44.1468 90.1158C42.1849 85.9201 40.2492 81.7139 38.2456 77.5392C37.0977 75.1513 37.2438 72.9307 38.7882 70.7832C39.4404 69.8793 40.0457 68.9492 40.8648 68.0558C40.8648 68.6096 40.8544 69.1635 40.8648 69.7173C40.8909 70.9661 41.611 71.7498 42.7067 71.7446C43.8181 71.7446 44.5172 70.9765 44.5224 69.7069C44.5277 60.5213 44.5224 51.3357 44.5329 42.1501C44.5329 41.7321 44.5485 41.2932 44.6581 40.8961C44.9033 40.0131 45.6703 39.4906 46.5626 39.522C47.4183 39.5533 48.1226 40.0915 48.3314 40.9484C48.4305 41.3559 48.4461 41.7896 48.4461 42.2076C48.4514 51.1476 48.4461 60.0928 48.4461 69.0328C48.4461 69.3672 48.4357 69.7016 48.467 70.0308C48.5453 70.9452 49.2079 71.6244 50.0897 71.708C50.9611 71.7916 51.7698 71.2535 52.0046 70.3757C52.1037 70.0047 52.109 69.5971 52.1142 69.2053C52.1194 65.2969 52.1246 61.3834 52.1142 57.4751C52.1142 56.6025 52.4377 55.939 53.2255 55.5523C53.9091 55.2127 54.5821 55.3015 55.1978 55.7404C55.8553 56.2159 55.9909 56.9004 55.9909 57.6684C55.9805 61.5193 55.9805 65.3701 55.9909 69.2157C55.9909 69.6337 56.0118 70.0726 56.1266 70.4697C56.3614 71.2848 57.191 71.7916 58.0206 71.7028C58.8293 71.614 59.4868 71.0131 59.6068 70.1928C59.6589 69.8375 59.6537 69.4665 59.6537 69.106C59.6537 65.438 59.6537 61.7701 59.6537 58.1021C59.6537 57.7991 59.6433 57.496 59.6798 57.193C59.805 56.0748 60.6294 55.3172 61.6625 55.3485C62.7009 55.3799 63.5148 56.1793 63.5461 57.2975C63.5826 58.6925 63.5566 60.0876 63.5618 61.4775C63.5618 64.1736 63.5618 66.8749 63.5618 69.571C63.5618 70.8825 64.287 71.708 65.3932 71.708C66.4993 71.708 67.2142 70.8773 67.2142 69.5658C67.2194 66.5039 67.2142 63.4421 67.2142 60.3802C67.2142 59.2098 67.715 58.4835 68.6438 58.2275C69.7082 57.9349 70.7622 58.541 71.0231 59.6121C71.0805 59.8473 71.117 60.0928 71.1118 60.3332C71.0909 65.2447 71.1013 70.1562 71.0335 75.0625C70.9813 79.1119 69.8178 82.9418 68.5812 86.7509C68.2159 87.8742 67.9342 89.029 67.5063 90.121C67.0628 91.2496 67.2141 92.1744 68.1064 92.9843H43.5833L43.5937 93Z" fill="white"/>
<path d="M79.5123 11.03V55.3434C77.0861 55.3434 74.7016 55.3434 72.3223 55.3381C72.1814 55.3381 72.0249 55.2807 71.8945 55.2075C70.2405 54.314 68.5447 54.2775 66.7707 55.0194C65.8837 53.4049 64.6419 52.2397 62.8 51.8426C60.9478 51.4403 59.3355 51.9419 57.8328 53.1436C56.1684 51.7642 54.2691 51.3671 52.0986 52.0098V45.0135C52.0986 44.4388 52.1194 43.8588 52.0986 43.284C52.0464 42.1032 52.0151 41.0791 53.283 40.2849C54.3317 39.6265 54.5352 38.3203 54.217 37.0819C54.0135 36.293 53.7578 35.5144 53.4708 34.7464C53.2934 34.2657 53.356 33.9313 53.8256 33.7066C53.8517 33.6961 53.8726 33.67 53.8987 33.6543C55.2396 32.6564 55.7927 32.6929 56.8884 33.926C57.0241 34.0776 57.0397 34.4276 56.9823 34.6471C56.7684 35.4361 56.471 36.1989 56.2518 36.9879C55.8553 38.43 56.3458 39.8094 57.5302 40.6924C58.6624 41.5389 60.1442 41.6329 61.3652 40.8753C62.0852 40.4312 62.7218 39.8512 63.4523 39.428C63.7079 39.2817 64.1879 39.2921 64.4488 39.4384C65.101 39.8146 65.6698 40.3267 66.3011 40.7499C67.616 41.6277 69.1552 41.5911 70.3709 40.6767C71.5605 39.7833 72.0197 38.3882 71.6023 36.8729C71.3466 35.9481 70.6944 34.9031 70.9292 34.1298C71.1536 33.4035 72.3171 32.9751 73.0528 32.4003C74.2946 31.4285 74.7433 30.0543 74.3103 28.607C73.8772 27.1649 72.7502 26.2453 71.1796 26.1251C70.4596 26.0676 69.7239 26.0467 69.0039 26.1146C68.2838 26.1826 67.9708 25.8847 67.8247 25.2212C67.6995 24.6621 67.496 24.1187 67.3081 23.5753C66.7342 21.9294 65.5289 20.9994 63.9636 20.9889C62.3983 20.9785 61.1669 21.9033 60.593 23.5387C60.3843 24.1396 60.1442 24.7352 60.0086 25.3518C59.8781 25.937 59.5912 26.0937 59.0068 26.1146C57.8067 26.1564 56.6171 26.3341 55.417 26.4125C55.104 26.4334 54.7805 26.2662 54.457 26.2453C53.4917 26.1773 52.5264 26.0781 51.5664 26.1199C50.8463 26.1512 50.5437 25.8795 50.3872 25.2212C50.2411 24.6046 50.0167 24.0037 49.8028 23.4081C49.2445 21.8876 48.034 20.9994 46.5209 20.9941C45.013 20.9837 43.7712 21.8719 43.2181 23.3767C42.9572 24.0873 42.785 24.8293 42.4824 25.519C42.3728 25.7698 42.018 26.0363 41.7467 26.0728C40.4684 26.24 39.1796 26.4281 37.8908 26.4229C36.4247 26.4125 34.9533 26.2191 33.4923 26.0624C33.3358 26.0467 33.1532 25.7541 33.0801 25.5556C32.8192 24.845 32.6157 24.1135 32.3601 23.4029C31.807 21.8772 30.5913 20.9941 29.0782 20.9889C27.5702 20.9837 26.3284 21.8667 25.7754 23.3767C25.5145 24.0873 25.3423 24.8293 25.0397 25.519C24.9301 25.7698 24.5701 26.0415 24.2988 26.0676C23.5787 26.146 22.8482 26.0781 22.123 26.099C20.4064 26.1512 19.1698 27.0551 18.695 28.5704C18.2306 30.07 18.7106 31.4546 20.062 32.4839C20.5942 32.8863 21.116 33.3095 21.6847 33.6491C22.2065 33.9626 22.2691 34.3022 22.0499 34.8456C21.7682 35.5458 21.5595 36.2773 21.3612 37.0088C20.9751 38.4404 21.4864 39.8355 22.6708 40.7029C23.8083 41.5337 25.2849 41.612 26.5111 40.8492C27.1998 40.4155 27.8624 39.9243 28.5042 39.4227C28.9008 39.1092 29.2086 39.0779 29.6156 39.4175C30.2 39.8982 30.8156 40.3371 31.447 40.7551C32.7253 41.6068 34.2437 41.5755 35.4437 40.7081C36.649 39.8355 37.1447 38.4143 36.7325 36.9252C36.529 36.1989 36.3046 35.4726 36.0438 34.7673C35.8716 34.3022 35.882 33.9522 36.3673 33.7223C36.3933 33.7118 36.4194 33.6857 36.4403 33.67C37.823 32.6355 38.2613 32.6564 39.43 33.9104C39.5709 34.0619 39.6074 34.4067 39.5448 34.621C39.3413 35.3786 39.0544 36.1153 38.8404 36.8729C38.3708 38.524 38.9187 39.8878 40.3536 40.8962C40.5988 41.0686 40.8545 41.4344 40.8545 41.7165C40.8858 46.1421 40.8753 50.5677 40.8701 54.9933C40.8701 55.0769 40.8336 55.1657 40.8075 55.2963H15.3035V11.03H79.5123ZM40.2492 19.7244C40.1031 19.2385 40.1031 18.9459 39.957 18.7892C38.9604 17.7494 38.0004 16.6626 36.8942 15.7482C36.289 15.2518 35.2924 15.5915 34.7967 16.2341C34.2541 16.9343 34.1654 17.7389 34.7393 18.4077C35.522 19.3221 36.3986 20.1634 37.296 20.968C37.8334 21.4487 38.5796 21.5219 39.1483 21.083C39.6283 20.712 39.9414 20.1216 40.2492 19.7192V19.7244ZM54.4517 21.4487C54.9579 21.292 55.2814 21.2867 55.4588 21.1195C56.4658 20.1686 57.4989 19.2385 58.3859 18.1831C58.8972 17.5717 58.6259 16.5999 58.0259 16.046C57.3945 15.4608 56.4501 15.3407 55.7875 15.9154C54.8796 16.7044 54.0291 17.577 53.2256 18.4704C52.7403 19.0086 52.6621 19.7506 53.0951 20.3253C53.4604 20.8113 54.05 21.1248 54.457 21.4487H54.4517ZM44.6842 15.5235C44.6842 15.8266 44.6634 16.1296 44.6842 16.4327C44.7625 17.3941 45.4617 18.0733 46.3852 18.1204C47.3505 18.1674 48.1436 17.5195 48.2792 16.5372C48.3262 16.208 48.3053 15.8736 48.3053 15.5392C48.3053 13.8411 47.6583 12.9476 46.4478 12.9737C45.2634 12.9999 44.679 13.8463 44.6842 15.5288V15.5235Z" fill="white"/>
<path d="M25.2119 37.0349C25.5041 36.1257 25.8015 35.2166 26.0884 34.3074C26.4693 33.0952 26.2606 32.463 25.2536 31.7106C24.4657 31.1254 23.6674 30.5506 22.9265 29.7773C23.9127 29.7773 24.8936 29.7878 25.8797 29.7773C27.1581 29.7617 27.6537 29.3959 28.0712 28.1733C28.379 27.2641 28.6712 26.3549 29.0573 25.1793C29.4486 26.3549 29.7565 27.285 30.0695 28.2046C30.4713 29.3855 30.9722 29.7617 32.1879 29.7773C33.1793 29.793 34.1706 29.7773 35.2611 29.9707C34.5306 30.5036 33.8002 31.0366 33.0697 31.5695C31.7966 32.4996 31.6296 33.0168 32.0992 34.506C32.3549 35.3106 32.6001 36.1205 32.8453 36.9251C32.861 36.9722 32.814 37.0349 32.7671 37.1707C31.9688 36.596 31.1965 36.0264 30.4139 35.4726C29.3704 34.7306 28.739 34.7411 27.6955 35.4883C26.9233 36.0421 26.151 36.6012 25.3788 37.1551C25.3266 37.1185 25.2693 37.0767 25.2171 37.0401L25.2119 37.0349Z" fill="white"/>
<path d="M50.1681 37.1394C49.4115 36.5907 48.6654 36.0421 47.9036 35.5039C46.8027 34.7149 46.1922 34.7149 45.1069 35.4935C44.3503 36.0369 43.599 36.5907 42.6598 37.0453C42.8842 36.3242 43.0981 35.6032 43.3277 34.8874C43.9747 32.8914 43.8703 32.557 42.1537 31.3187C41.5432 30.8798 40.938 30.4357 40.3484 29.7773C41.1623 29.7773 41.9711 29.7773 42.785 29.7773C44.7469 29.7773 45.0443 29.5579 45.6391 27.7187C45.8844 26.9558 46.1452 26.1982 46.4896 25.1741C46.8861 26.3602 47.1888 27.2902 47.5018 28.2203C47.8984 29.3907 48.3993 29.7616 49.6359 29.7721C50.6272 29.7825 51.6134 29.7721 52.683 29.9602C51.9003 30.5349 51.1177 31.1097 50.335 31.6844C49.2706 32.4734 49.0776 33.0743 49.4793 34.344C49.7559 35.2322 50.0428 36.1152 50.3298 36.9983C50.2724 37.0453 50.2202 37.0923 50.1629 37.1394H50.1681Z" fill="white"/>
<path d="M60.092 37.0453C60.3164 36.3347 60.5303 35.6241 60.7599 34.9187C61.433 32.8601 61.339 32.5727 59.5546 31.2873C58.9493 30.8484 58.3493 30.4043 57.791 29.7721C58.7719 29.7721 59.7529 29.7825 60.7338 29.7721C62.0226 29.7616 62.5235 29.3959 62.9357 28.1785C63.2435 27.2693 63.5409 26.3549 63.927 25.1741C64.2766 26.2243 64.5531 27.029 64.8192 27.8388C65.3567 29.5004 65.7271 29.7721 67.4959 29.7773C68.3099 29.7773 69.129 29.7878 69.943 29.7982C69.99 29.7982 70.0317 29.8609 70.1569 29.955C69.3325 30.5506 68.5342 31.1254 67.7411 31.7158C66.7289 32.463 66.5306 33.0952 66.9115 34.3126C67.1985 35.2218 67.4907 36.1309 67.6211 37.1498C66.8489 36.5907 66.0767 36.0264 65.2993 35.4778C64.2453 34.7306 63.6192 34.7306 62.5808 35.4778C61.8034 36.0369 61.0312 36.6012 60.2538 37.1603C60.2016 37.1237 60.1442 37.0871 60.092 37.0558V37.0453Z" fill="white"/>
<path d="M34.1862 64.4819C34.1444 65.5269 33.3096 66.3107 32.2922 66.248C31.3321 66.1905 30.5442 65.3388 30.5651 64.3722C30.5808 63.3951 31.4938 62.5591 32.4904 62.6166C33.4818 62.6688 34.2227 63.4839 34.1862 64.4819Z" fill="#EF4623"/>
<path d="M7.63342 34.9815C6.62119 34.9867 5.79679 34.1559 5.80723 33.137C5.81766 32.1182 6.64727 31.3083 7.66472 31.324C8.64565 31.3396 9.43874 32.1391 9.44917 33.1161C9.46482 34.1246 8.64043 34.971 7.63342 34.9762V34.9815Z" fill="#EF4623"/>
<path d="M40.2491 19.7245C39.9412 20.1216 39.6282 20.7172 39.1482 21.0882C38.5794 21.5271 37.8333 21.4592 37.2959 20.9732C36.3984 20.1686 35.5219 19.3274 34.7392 18.413C34.1653 17.7442 34.254 16.9447 34.7966 16.2394C35.2923 15.5967 36.2941 15.2571 36.8941 15.7534C38.0003 16.6626 38.9603 17.7546 39.9569 18.7944C40.103 18.9459 40.103 19.2437 40.2491 19.7297V19.7245Z" fill="#EF4623"/>
<path d="M54.4518 21.4486C54.0448 21.1247 53.4604 20.806 53.09 20.3253C52.6569 19.7505 52.7352 19.0086 53.2204 18.4704C54.0292 17.5769 54.8744 16.7043 55.7823 15.9153C56.4449 15.3406 57.3893 15.466 58.0207 16.046C58.6207 16.5998 58.8973 17.5769 58.3807 18.183C57.4937 19.2385 56.4554 20.1685 55.4536 21.1195C55.2762 21.2867 54.9527 21.2919 54.4466 21.4486H54.4518Z" fill="#EF4623"/>
<path d="M44.6842 15.5235C44.679 13.8463 45.2634 12.9946 46.4478 12.9685C47.6583 12.9423 48.3105 13.8358 48.3053 15.5339C48.3053 15.8683 48.3261 16.2027 48.2792 16.5319C48.1435 17.5142 47.3504 18.1621 46.3852 18.1151C45.4616 18.0681 44.7625 17.3888 44.6842 16.4274C44.6581 16.1244 44.6842 15.8213 44.6842 15.5183V15.5235Z" fill="#EF4623"/>
</g>
<defs>
<clipPath id="clip0_613_301">
<rect width="93" height="93" fill="white"/>
</clipPath>
</defs>
</svg>
